<!-- Generated by IcoMoon.io -->
<svg version="1.1" xmlns="http://www.w3.org/2000/svg" width="1024" height="1024" viewBox="0 0 1024 1024">
<g id="icomoon-ignore">
</g>
<path d="M510.923 4.923c206 0 390 124 470 312 78 190 34 408-110 554-146 144-362 188-552 110s-312-262-314-466c0-206 122-390 310-470 62-26 130-40 196-40zM510.923 922.923c228 0 412-184 412-412 0-226-184-410-412-410-226 0-410 184-410 410 0 228 184 412 410 412zM594.923 724.923c-10 0-18-4-26-10l-178-174c-8-8-12-16-12-26s4-20 12-26l178-180c14-12 38-12 52 2s14 36 0 50l-152 152 152 148c10 10 14 26 8 40s-18 24-34 24z"></path>
</svg>
