<!-- Generated by IcoMoon.io -->
<svg version="1.1" xmlns="http://www.w3.org/2000/svg" width="1024" height="1024" viewBox="0 0 1024 1024">
<g id="icomoon-ignore">
</g>
<path d="M989 390c20 0 36-18 36-38v-120c0-14-8-28-22-34l-478-196c-6-2-8-2-14-2s-8 0-14 2l-474 198c-16 6-24 18-24 32v120c0 20 18 38 38 38h44v320h-4c-20 0-38 18-38 38v82h-2c-20 0-38 14-38 34v122c0 20 18 38 38 38h952c20 0 36-18 36-38v-122c0-20-16-38-36-38h-6v-82c0-20-18-38-38-38h-4v-320h48zM71 952v-50h880v50zM825 710v-320h44v320zM909 782v44h-124v-44zM275 710l-2-320h480v320h-4c-20 0-38 18-38 38v82h-400v-82c0-20-16-38-36-38zM153 710v-320h44v320zM237 782v44h-122v-44zM71 314v-58l440-184 440 184v58zM689 198h-356c-20 0-38 18-38 38s18 38 38 38h356c20 0 38-18 38-38s-18-38-38-38z"></path>
</svg>
