<!-- Generated by IcoMoon.io -->
<svg version="1.1" xmlns="http://www.w3.org/2000/svg" width="1024" height="1024" viewBox="0 0 1024 1024">
<g id="icomoon-ignore">
</g>
<path d="M850.924 449c-22 0-38 10-54 24-14 14-24 36-24 54 0 40 36 76 78 76s76-36 76-78c0-42-32-76-76-76zM878.924 525c0 16-12 28-28 28-8 0-14-2-22-8-4-6-8-12-6-22 0-16 12-28 28-28 16 2 28 16 28 30zM978.924 469v0c10-16 10-38-4-52l-22-24c-14-14-36-14-50 0l-2 2v-4c0-16-12-34-30-36v-198c0-42-34-78-76-78h-708c-40 0-76 36-76 78v524c0 42 36 78 78 78h162l-18 64h-92c-14 0-26 12-26 26 2 52 44 96 98 96h460c52 0 100-42 100-98 0-8-2-16-8-20-4-4-10-6-18-6h-92l-24-64h164c40 0 74-34 76-74 18-4 30-18 30-36h2c14 16 36 16 50 0l22-22c8-8 12-18 12-26 0-10-4-20-12-26v-4h4c20 0 34-16 34-34v-34c2-16-16-32-34-32zM168.924 871h542c-8 18-26 26-40 26h-462c-14-2-30-10-40-26zM278.924 823l20-64h282l20 64zM932.924 549c-2 4-2 10-4 12-8 14-6 28 4 38l-4 6c-6-4-12-6-20-10-6-2-16 0-22 4-6 2-8 4-12 4-14 4-26 18-26 34h-8c0-16-10-30-24-36-4-2-6-2-12-6-14-6-32-4-42 8l-4-4 2-4c12-10 14-28 8-40 0-2-4-4-4-6-2-8-6-14-14-20-6-4-14-6-20-6v-8h6c18 0 28-8 36-22 0-4 2-6 2-8l2-4c6-14 0-28-8-36l-8-8 4-4 10 10c4 4 12 6 16 6 8 4 14 0 22-2 2 0 4-2 8-2l8-2c10-8 18-20 18-32v-8h2v6c0 8 2 18 6 22 6 6 12 12 20 14 2 0 4 2 6 2 14 8 32 2 40-6l6-6 4 6c-12 12-14 30-8 42 4 2 4 6 6 10 4 14 18 22 36 22v8c-12 2-26 14-32 26zM824.924 355c-2 0-2 2-4 2v-38h-252v48h236c-4 8-8 14-8 24v4l-6-2c-14-14-34-14-48 0l-24 24c-14 14-14 36 0 50l2 2h-4c-22 0-36 16-36 34v34c0 16 10 30 26 36h-652v-416c0-16 14-30 32-30h708c16 0 30 14 30 30zM790.924 651c4 18 14 34 32 34-2 14-18 24-32 24h-708c-6 0-16-2-20-10-6-4-10-14-10-20v-60h658c2 2 6 6 6 8l22 24c18 14 38 14 52 0zM568.924 173h248v48h-248zM568.924 247h248v46h-248zM528.924 193c0-8-2-14-6-20-4-4-12-6-20-6h-74c-14 0-26 12-26 26v302h-18v-104c0-8-2-14-6-20-4-4-12-6-20-6h-72c-14 0-26 12-26 26v104h-16v-230c0-14-12-26-26-26h-68c-16 0-26 12-26 26v230h-64v46h558v-46h-90zM200.924 289v204h-26v-204zM314.924 493v-78h28v78zM454.924 493v-276h28v276z"></path>
</svg>
