<!-- Generated by IcoMoon.io -->
<svg version="1.1" xmlns="http://www.w3.org/2000/svg" width="1024" height="1024" viewBox="0 0 1024 1024">
<g id="icomoon-ignore">
</g>
<path d="M880 79.5h-90v-48c0-10-4-16-10-22-12-12-32-12-42 0-6 6-8 12-8 22v48h-434v-48c0-10-4-16-10-22-12-12-32-12-42 0-6 6-10 16-10 22v48h-88c-36 0-68 12-90 38-26 26-38 62-38 96v680c0 34 12 66 38 92 22 22 54 38 90 38h734c34 0 66-12 88-38 26-26 38-58 38-92v-680c0-34-12-66-38-92-22-26-54-38-88-42zM946 889.5c0 20-6 36-18 48-14 12-30 20-48 20h-734c-10 0-16 0-26-8-10-2-16-8-22-14-6-8-10-14-16-24-4-8-6-16-6-24v-524c0-4 0-6 2-6 4-4 4-4 6-4h850c2 0 6 0 6 4 4 2 4 2 4 6zM834 627.5h-230v236h230z"></path>
</svg>
