<!-- Generated by IcoMoon.io -->
<svg version="1.1" xmlns="http://www.w3.org/2000/svg" width="1024" height="1024" viewBox="0 0 1024 1024">
<g id="icomoon-ignore">
</g>
<path d="M1012 227c0-4 0-4 0-4v-76c0-50-42-92-92-92h-818c-50 0-92 42-92 92v572c0 52 42 92 92 92h102c0 0 0 0 4 0 18 0 30-16 30-30 0-18-16-32-30-32h-102c-18 0-32-12-32-30v-316h878v316c0 18-12 30-30 30h-102c-16 0-28 14-30 32 0 18 12 30 30 30h102c52 0 92-40 92-92v-484c-4-4-2-6-2-8zM100 117h818c18 0 30 12 30 30v52h-878v-52c0-18 14-30 30-30zM70 259h878v82h-878zM428 901c-46-22-82-60-104-106-40-102 8-218 108-260v42c0 2 0 4 2 4 4 6 10 6 14 2l92-60c0 0 2 0 2 0l34-24c2-2 2-2 4-4 2-6-2-10-8-14-20-4-42-8-64-8-92 0-176 52-218 132-68 120-22 270 98 336 4 2 8 2 10 0l30-18c2 0 2-2 2-4 4-8 2-16-2-18zM628 503c-2-4-6-4-10 0l-28 16c-2 0-2 4-2 6-2 6 0 10 4 12 46 22 82 60 104 106 40 102-8 220-108 260v-40c0-4 0-6-2-6-4-6-10-6-14-2l-110 74c0 0-2 0-2 2l-18 12c-2 4-2 4-4 6-4 4 2 10 6 12 22 6 42 8 64 8 92 0 174-48 218-130 66-120 22-270-98-336zM536 671v4c0 4 4 8 8 8h38c6 0 8-4 8-8v-4c-2-32-28-54-58-56v-14c0-4-2-8-8-8h-26c-4 0-8 4-8 8v14c-14 2-28 8-40 18s-20 28-20 46c0 20 10 48 60 58v46c-6-6-12-12-12-24v-4c0-2-2-8-8-8h-38c-4 0-8 6-8 8v4c4 36 32 64 66 64v14c0 4 4 8 8 8h26c6 0 8-4 8-8v-14c16-2 30-6 44-20 12-12 20-28 20-46 0-14-6-30-18-44-14-10-30-16-48-20v-38c4 8 6 10 6 16zM542 759c0 8-2 18-12 22v-38c2 0 4 2 6 4 6 6 6 10 6 12zM480 673c0-8 4-12 8-16v32c-2 0-2-4-4-4 0-2-4-4-4-12z"></path>
</svg>
