<!-- Generated by IcoMoon.io -->
<svg version="1.1" xmlns="http://www.w3.org/2000/svg" width="1024" height="1024" viewBox="0 0 1024 1024">
<g id="icomoon-ignore">
</g>
<path d="M587.201 870c-10 0-16 6-22 12-16 22-42 38-72 38h-314c-46 0-84-38-86-82l-34-640c0-2 0-2 0-4 0-50 40-88 86-88h386c26 0 52 14 68 36 10 12 28 14 40 4s16-26 6-40c-30-36-70-56-114-56h-386c-2 0-4 0-8 0-78 4-140 72-134 150l34 638c4 76 66 136 142 136h314c46 0 90-22 116-60 4-4 6-10 6-16 0-16-12-28-28-28zM177.201 218h294c16 0 28-12 28-28 0-14-12-26-28-26h-294c-32 0-56 24-56 56v200c0 32 24 58 56 58h62c16 0 28-12 28-28 0-14-12-26-28-26h-62zM151.201 586h62c14 0 26-12 26-28 0-14-12-26-26-26h-62c-16 0-28 12-28 26 0 16 12 28 28 28zM151.201 694h62c14 0 26-12 26-26 0-16-12-28-26-28h-62c-16 0-28 12-28 28 0 14 12 26 28 26zM303.201 694h62c16 0 28-12 28-26 0-16-12-28-28-28h-62c-14 0-26 12-26 28 0 14 12 26 26 26zM151.201 802h62c14 0 26-14 26-28s-12-28-26-28h-62c-16 0-28 14-28 28s12 28 28 28zM303.201 802h62c16 0 28-14 28-28s-12-28-28-28h-62c-14 0-26 14-26 28s12 28 26 28zM471.201 802c16 0 28-14 28-28s-12-28-28-28h-14c-16 0-28 14-28 28s12 28 28 28zM1003.201 556l-374-376c-12-12-26-16-44-16s-32 8-44 16l-254 258c-26 24-26 62 0 86l372 374c24 24 62 24 86 0l258-256c24-24 24-64 0-86zM965.201 598c0 2 0 2-2 6l-256 256c-4 2-6 2-8 0l-374-372c-2-4-2-6 0-8l258-260c0 0 2-2 4-2 4 0 4 0 6 2l372 374c0 2 0 4 0 4zM471.201 498l-34-36c-6-4-12-6-20-6s-14 2-20 6c-10 10-10 28 0 40l34 34c10 10 28 10 40 0s12-26 0-38zM563.201 588l-34-34c-6-4-14-8-20-8-8 0-16 4-20 8-10 10-10 28 0 40l34 34c10 10 28 10 40 0 10-10 10-28 0-40zM617.201 646c-4-6-12-8-20-8-6 0-14 2-20 8-10 10-10 26 0 38l36 36c10 10 26 10 38 0 10-10 10-28 0-40zM555.201 316c-10 0-16 6-24 10l-58 58c-6 6-8 14-8 24s2 20 8 24l78 78c6 6 14 10 24 10s18-6 24-10l58-58c8-6 10-14 10-24s-2-18-10-24l-76-78c-8-6-16-10-26-10zM603.201 426l-28 26-46-46 26-28z"></path>
</svg>
