<!-- Generated by IcoMoon.io -->
<svg version="1.1" xmlns="http://www.w3.org/2000/svg" width="1024" height="1024" viewBox="0 0 1024 1024">
<g id="icomoon-ignore">
</g>
<path d="M448 843h92c6 0 14-2 18-8s6-12 6-20v-60c0-6-2-14-6-18s-12-8-18-8h-92c-16 0-28 12-28 28v62c0 10 12 24 28 24zM464 757h-20v-2c0 0 0-2 0-2s2 0 2 0h18zM446 787v-4h18v4zM464 813v6h-18c0 0-2 0-2 0s0-4 0-4v-2zM490 751h50c2 0 2 2 2 2v2h-20c-6 0-14 2-18 8-4 4-6 10-6 18v32h-6zM520 785c0-2 2-2 2-2h20v32c0 0 0 4 0 4s0 0-2 0h-20zM792 721h92c18 0 34-16 34-36 0-18-16-34-34-34h-92c-18 0-34 16-34 34 0 20 16 36 34 36zM782 685c0-2 0-4 2-6s4-2 6-2h94c4 0 8 4 8 8 0 2 0 6-2 8s-4 4-6 4h-92c-6 0-10-4-10-12zM430 889h60c8 0 12-6 12-12 0-2-2-8-4-10-4-2-6-4-10-4h-60c-8 0-12 4-12 12 0 2 2 6 4 8 2 6 6 6 10 6zM534 877c0 2 2 6 6 8 2 4 4 6 8 6h60c4 0 8-2 10-6 2-2 4-4 4-8 0-8-4-12-10-12h-62c-8-2-16 4-16 12zM664 889h62c2 0 6-4 8-6s6-4 6-8c0-8-6-12-12-12h-60c-8 0-12 4-12 12 0 2 2 6 4 8 0 6 2 6 4 6zM844 863h-60c-8 0-12 4-12 12 0 2 2 6 4 8s6 6 10 6h60c2 0 8-4 10-6s4-4 4-8c-2-6-10-12-16-12zM430 919h46c2 0 8-4 10-6s4-4 4-8c0-8-4-12-12-12h-46c-6 0-12 4-12 12 0 2 2 6 6 8-4 6 0 6 4 6zM576 895h-46c-8 0-12 4-12 12 0 2 2 6 4 8 4 4 6 6 10 6h46c2 0 8-2 10-6 2-2 4-4 4-8-4-8-8-12-16-12zM978 837h-6v-464c0-18-10-32-24-42 24 0 42-16 42-38v-208c-2-24-20-40-42-40h-228c-16 0-32 10-38 24-8 14-4 32 8 44l54 48-98 90-200-182c-30-26-76-26-108 0l-290 260c-2 0-2 2-4 6-14 16-12 38 2 50l62 56c10 8 20 12 30 12 12 0 22-4 32-12l222-202 200 178c30 26 78 26 108 0l164-148 56 48c-2 0-4 0-6 0h-68c-30-2-58 24-58 54v222h-48v-82c-4-30-28-56-58-54h-68c-30-2-58 24-58 54v84h-68v-222c-2-30-28-56-58-52h-68c-30-4-58 22-58 52v396c2 28 24 52 52 54v14h-314c-24 0-42 16-42 40v62c0 24 20 40 42 40h940c20 0 38-16 42-40v-62c-4-24-22-40-46-40zM594 601v-90c0-10 8-14 18-14h66c10 0 18 8 18 14v90zM978 877v58h-22c0-2 2-2 2-6 4-6 4-16 4-24v-30h16zM392 663c0-18 16-30 34-30h470c16 0 32 10 32 30v244c0 16-16 30-32 30h-468c-16 0-34-12-34-30v-244zM830 601v-228c0-8 6-14 16-14h68c10 0 16 8 16 14v236c-10-4-20-10-32-8zM444 601h-16c-36-2-66 26-68 62v120c-10 0-16-6-16-14v-396c0-8 6-14 16-14h68c8 0 16 8 16 14zM364 933c0 2 2 2 2 4h-324v-58h318v28c0 8 2 16 4 26zM138 413l-58-54 286-260c8-4 14-10 24-10s16 4 24 10l204 186c14 12 32 12 46 0l112-100c0 0 2-2 2-2 12-12 10-32-2-42l-56-56h228v204l-60-52c-14-12-32-12-46 0l-172 156c-14 10-36 10-50 0l-204-186c-14-12-32-12-46 0zM176 823c30 0 54-24 54-54v-244c0-30-24-54-54-54h-62c-32 0-54 24-54 54v244c0 30 22 54 54 54zM100 769v-244c0-8 6-14 16-14h60c8 0 14 6 14 14v244c0 8-6 14-14 14h-60c-10 0-16-6-16-14z"></path>
</svg>
