<!-- Generated by IcoMoon.io -->
<svg version="1.1" xmlns="http://www.w3.org/2000/svg" width="1024" height="1024" viewBox="0 0 1024 1024">
<g id="icomoon-ignore">
</g>
<path d="M219.040 690h162v-118h-162zM273.040 626h54v10h-54zM223.040 104h50v214h-50zM319.040 104h50v120h-50zM857.040 442l-194-194v-154c0-52-42-94-92-94h-344c-4 0-6 0-8 0-50 2-86 44-84 94v630c0 52 42 94 94 94h158v56c0 38 36 82 102 134 16 10 34 16 52 16h268c0 0 2 0 2 0 44-2 78-38 78-82v-442c-6-22-16-42-32-58zM227.040 758c-22 0-40-18-40-40v-624c0-22 18-40 40-40h346c20 0 38 18 38 40v416l-64-66v-390h-124v354c-2 4-8 4-10 6-6 2-10 8-16 10-36 36-36 94 0 126l28 30v176h-198zM829.040 944c0 16-14 28-28 28h-268c-4 0-10-2-14-4-54-42-80-78-80-94v-56h94l110 108c4 2 12 4 18 4 8 0 12-2 18-4 10-10 10-28 0-40l-70-68-68-70c-2-4-2-6-4-8 0-6-4-8-4-14v-70c0-18-4-36-14-48-4-8-8-14-14-22l-78-76c-2-4-2-6-4-8-6-14 0-28 10-36 16-14 36-14 52 2l220 220c10 10 28 10 38 0s10-28 0-38l-82-84v-240l158 158c4 4 10 10 10 18z"></path>
</svg>
