<!-- Generated by IcoMoon.io -->
<svg version="1.1" xmlns="http://www.w3.org/2000/svg" width="1024" height="1024" viewBox="0 0 1024 1024">
<g id="icomoon-ignore">
</g>
<path d="M7.263 512c0 54 18 106 54 148 38 44 94 70 152 70l212 2c98-2 182-74 198-170 4-16 6-32 6-48s-2-32-4-48l-2-8h-28c-16 0-30 6-44 16-12 10-20 24-20 40 0 28-12 56-32 76s-48 30-76 30h-210c-32 0-62-14-82-38-16-18-26-44-26-68 0-28 10-54 28-74 16-20 40-32 64-32h172l2-8c14-32 34-62 60-86l20-22h-254c-114 10-198 106-190 220zM569.263 732h256c52-2 102-24 136-64 36-44 56-98 56-154-2-54-20-108-56-148-38-46-94-72-152-72h-212c-98 4-182 74-200 172-4 16-6 32-6 48s2 30 4 46l2 8h28c16 0 32-6 44-16s20-24 20-40c2-28 12-56 32-76 22-20 48-30 76-30h214c32 0 60 14 82 38 16 18 24 44 24 68 0 28-8 54-26 74-16 20-40 32-66 32h-172l-4 8c-14 32-34 62-58 86z"></path>
</svg>
