<!-- Generated by IcoMoon.io -->
<svg version="1.1" xmlns="http://www.w3.org/2000/svg" width="1024" height="1024" viewBox="0 0 1024 1024">
<g id="icomoon-ignore">
</g>
<path d="M512 104c-166 0-314 98-378 252-62 152-28 328 90 444 158 160 418 160 576 0 160-158 160-418 0-576-76-78-180-120-288-120M512-2c284 0 514 230 514 514s-230 514-514 514c-284 0-514-230-514-514s230-514 514-514zM772 356l-254 358c-10 14-26 24-42 28-18 2-36-2-50-12-4-2-8-6-10-8l-172-178c-14-16-16-40-2-56 14-18 36-22 54-10l156 98 254-274c16-16 42-16 58-2 18 14 20 38 8 56z"></path>
</svg>
