<svg width="1024" height="1024" viewBox="0 0 1024 1024" fill="none" xmlns="http://www.w3.org/2000/svg">
<g clip-path="url(#clip0_2145_347)">
<path d="M128 928H576C593.6 928 608 913.6 608 896V768H704V896C704 966.6 646.6 1024 576 1024H128C57.4 1024 0 966.6 0 896V448C0 377.4 57.4 320 128 320H256V416H128C110.4 416 96 430.4 96 448V896C96 913.6 110.4 928 128 928ZM448 608H896C913.6 608 928 593.6 928 576V128C928 110.4 913.6 96 896 96H448C430.4 96 416 110.4 416 128V576C416 593.6 430.4 608 448 608ZM320 576V128C320 57.4 377.4 0 448 0H896C966.6 0 1024 57.4 1024 128V576C1024 646.6 966.6 704 896 704H448C377.4 704 320 646.6 320 576Z" fill="black"/>
</g>
</svg>
