<!-- Generated by IcoMoon.io -->
<svg version="1.1" xmlns="http://www.w3.org/2000/svg" width="1024" height="1024" viewBox="0 0 1024 1024">
<g id="icomoon-ignore">
</g>
<path d="M512.994 1c-68 0-138 14-200 40-60 28-114 64-162 110-200 198-200 524 0 722 198 200 524 200 722 0 96-96 150-226 150-362 2-282-228-510-510-510zM512.994 929c-230 0-416-188-416-416 0-230 186-416 416-416 228 0 416 186 416 416 0 228-188 416-416 416zM692.994 383c12-14 12-34-2-46s-34-12-46 2l-132 134-132-136c0 0 0 0-2-2-16-12-34-12-46 2s-12 34 2 46l132 132-134 136c-12 12-12 32 0 44s34 12 46 0l132-132 132 132c12 12 34 12 46 0 14-12 14-32 2-44l-132-134 134-134c0 2 0 2 0 0z"></path>
</svg>
