<!-- Generated by IcoMoon.io -->
<svg version="1.1" xmlns="http://www.w3.org/2000/svg" width="1024" height="1024" viewBox="0 0 1024 1024">
<g id="icomoon-ignore">
</g>
<path d="M941.125 574c-18 0-36-8-50-20l-378-380-380 380c-28 28-72 28-100 0s-28-72 0-100l430-430c12-12 30-20 50-20 18 0 36 8 50 20l428 430c20 20 26 50 16 76-12 26-38 44-66 44zM941.125 1020c-18 0-36-8-50-22l-378-378-380 378c-28 28-72 28-100 0-28-26-28-72 0-100l430-428c12-14 30-20 50-20 18 0 36 6 50 20l428 428c20 20 26 52 16 78-12 26-38 44-66 44z"></path>
</svg>
