<!-- Generated by IcoMoon.io -->
<svg version="1.1" xmlns="http://www.w3.org/2000/svg" width="1024" height="1024" viewBox="0 0 1024 1024">
<g id="icomoon-ignore">
</g>
<path d="M1023.614 624c0 108 0 218 0 328 0 18-2 32-12 46-10 16-28 24-48 24-180 0-362 0-542 0-30 0-56-22-60-56 0-2 0-6 0-6 0-44 0-86 0-132 0-22 0-22-22-22-90 0-176 0-266 0-54 0-74-20-74-74 0-112 0-224 0-336-2-54 22-108 62-144 58-60 118-116 178-178 22-28 50-50 84-62 14-8 30-10 44-10 74 0 150 0 222 0 48 0 68 20 72 66 0 48 0 96 0 144 0 22 0 28 22 18 14-10 30-12 48-10 78 0 154 0 232 0 32-2 58 20 60 52 0 2 0 6 0 6 2 18 0 38 0 58 0 96 0 192 0 288M947.614 620c0-98 0-196 0-296 0-30 0-30-30-30-54 0-108 0-162 0-18 0-24 6-22 26 0 66 0 132 0 200 4 32-20 64-54 66-4 0-10 0-14 0-66 0-132 0-200 0-22 0-22 0-22 24 0 104 0 208 0 312 0 22 0 24 26 24 152 0 304 0 456 0 22 0 22 0 22-22 0-102 0-202 0-304M77.614 548c0 52 0 108 0 162 0 14 4 20 20 20 26-2 54-2 80-2 56 2 112-4 168 2 16 0 22-6 20-22 0-40 0-80 0-118s14-70 36-96c56-60 112-116 172-172 6-6 12-14 12-26 0-66 0-134 0-202 0-14-6-20-20-20-60 0-122 0-180 0-14 0-18 4-18 18 0 70 0 140 0 210 4 32-20 60-50 62-6 0-8 0-14 0-70 0-138 0-208 0-14 0-20 4-20 20 2 56 2 110 2 164M291.614 212c0-22 0-42 0-64 0-6 4-12-2-14-6 0-8 6-12 8-48 46-92 90-140 138-2 2-8 6-6 12 4 2 6 2 12 2 44 0 86-2 132 0 10 0 16-6 16-16 0-24 0-46 0-66M655.614 356l-8-6c-6 8-12 14-18 22-42 42-84 86-126 128-4 2-8 4-6 10s6 4 8 4c46 0 90 0 136 0 8 0 14-4 14-12 0-50 0-98 0-146"></path>
</svg>
