<!-- Generated by IcoMoon.io -->
<svg version="1.1" xmlns="http://www.w3.org/2000/svg" width="1024" height="1024" viewBox="0 0 1024 1024">
<g id="icomoon-ignore">
</g>
<path d="M409 26h-326c-46 0-84 34-84 80v194c0 44 38 82 84 82h330c44 0 80-36 84-82v-194c-6-46-44-80-88-80zM407 110v184h-322v-184zM409 410h-326c-46 0-84 34-84 82v424c0 44 38 82 84 82h330c44 0 80-36 84-82v-424c-6-48-44-84-88-82zM407 494v414h-322v-414zM939 642h-326c-48 0-84 34-84 80v194c0 44 36 82 84 82h330c42 0 80-36 82-82v-196c-4-44-42-82-86-78zM937 726v184h-322v-184zM613 610h326c44 0 82-34 84-82v-422c-2-46-40-80-84-80h-326c-48 0-84 34-84 80v426c0 44 36 80 84 78zM615 526v-416h322v414h-322z"></path>
</svg>
