<!-- Generated by IcoMoon.io -->
<svg version="1.1" xmlns="http://www.w3.org/2000/svg" width="1024" height="1024" viewBox="0 0 1024 1024">
<g id="icomoon-ignore">
</g>
<path d="M960 14h-128c-38 0-66 30-66 68v376c-4 0-4 0-6 0v-212c0-38-30-66-66-66h-116c-38 0-68 28-68 66v422c-2 0-2 0-6 0v-254c0-16-8-34-20-46s-28-16-46-16h-116c-38 0-66 28-66 66v208c-6 0-12 0-16 0v-42c0-18-8-36-20-48-12-10-28-16-46-16h-102c-38 0-66 28-66 66v356c0 38 28 68 66 68h106c36 0 66-30 66-68v-132c6 0 12 0 14 0v132c0 18 6 36 20 48 12 10 30 20 46 20h116c38 0 68-30 68-68v-86c0 0 2 0 6 0v86c0 38 28 68 66 68h116c38 0 66-30 66-68v-298c0 0 4 0 6 0v298c0 18 6 36 20 48 12 10 30 16 48 16h116c38 0 66-28 66-66v-858c-2-36-26-62-58-68zM816 588c-16-4-30-8-44-8h-4c-20 0-40 8-58 20l-14 10v332c0 0 0 0-2 0h-116c0 0-4 0-4 0v-136l-14-8c-14-6-30-10-44-10h-2c-20 0-42 10-58 22l-16 8v124c0 0 0 0-2 0h-116c0 0-2 0-2 0v-168l-12-8c-36-26-84-26-120 0l-8 8v168c0 0 0 0-2 0h-106c0 0-2 0-2 0v-364c0 0 0 0 2 0h106c0 0 2 0 2 0v80l12 10c34 26 84 26 118 0l12-10v-246c0 0 0 0 2 0h116c0 0 4 0 4 0v290l14 8c18 12 38 18 58 20h4c14 0 28-2 42-10l18-10v-464c0 0 0 0 4 0h116c0 0 2 0 2 0v248l14 8c18 12 38 18 58 20h4c14 0 28-2 42-8l18-10v-422c0 0 0 0 4 0h116c0 0 2 0 2 0v860c0 0 0 0-2 0h-116c0 0-4 0-4 0v-344z"></path>
</svg>
