<!-- Generated by IcoMoon.io -->
<svg version="1.1" xmlns="http://www.w3.org/2000/svg" width="1024" height="1024" viewBox="0 0 1024 1024">
<g id="icomoon-ignore">
</g>
<path d="M386.924 890c0 0 4 0 0 0 4 0 4 0 0 0 26-2 40-20 38-42l-38-502c-2-22-20-36-40-34-22 4-36 22-34 40l40 504c-2 20 16 34 34 34zM536.924 890c20 0 40-18 36-40v-500c0-22-18-38-36-38-22 0-38 20-38 38v504c-4 22 16 36 38 36zM680.924 890c26 0 40-14 40-36l42-504c2-22-16-40-36-40-20-4-40 14-40 36l-40 504c-2 22 12 40 34 40zM968.924 146h-130v-62c0-18-6-38-18-54-16-14-34-24-56-24h-488c-40 0-74 34-74 74v66h-150c-18 0-36 14-36 36s18 40 36 40h60l90 700c6 56 52 96 108 96h436c56 0 102-40 108-96l86-700h28c22 0 38-18 38-36 2-26-16-40-38-40zM278.924 84h484v62h-484zM776.924 912c-2 16-14 28-30 28h-436c-16 0-28-12-32-28l-86-690h672z"></path>
</svg>
