<!-- Generated by IcoMoon.io -->
<svg version="1.1" xmlns="http://www.w3.org/2000/svg" width="1024" height="1024" viewBox="0 0 1024 1024">
<g id="icomoon-ignore">
</g>
<path d="M944.001 938.797v-84c0-174 0-352 0-530 0-38-16-76-44-104-48-48-102-100-168-168-28-28-66-44-104-44-66 0-140 0-228 0h-244c-6 0-12 0-16 0-38 6-64 38-60 76 0 114 0 226 0 338v206c0 106 0 206 0 310 0 8 0 10 0 16 4 38 38 64 72 60 118 0 234 0 356 0 120 0 240 0 360 0 4 0 10 0 12 0 42-6 68-38 64-76zM846.001 904.797c0 4 0 4 0 6-4 0-4 0-6 0-112 0-218 0-324 0-110 0-224 0-328 0-4 0-4 0-6 0 0-2 0-6 0-6 0-102 0-202 0-300 0-32 0-64 0-92v-104c0-96 0-194 0-288 0-4 0-8 0-10 2 0 6 0 8 0 124 0 248 0 374 0 4 0 6 0 6 0 0 2 0 6 0 6 0 38 0 76 0 118 0 24 0 52 0 78 0 6 0 12 0 16 6 38 38 64 76 60h104c36 0 64 0 92 0 4 0 4 0 8 0 0 4 0 4 0 6-4 168-4 342-4 510zM796.001 286.797h-22c-16 0-32 0-46 0-6 0-16 0-22 0-12 0-22 0-32 0h-2c0 0-4 0-4 0 0-2 0-2 0-6 0-34 0-70 0-104 0-16 0-34 0-54 32 32 68 66 98 98l16 16c16 16 32 32 48 48-12 2-22 2-34 2z"></path>
</svg>
