<!-- Generated by IcoMoon.io -->
<svg version="1.1" xmlns="http://www.w3.org/2000/svg" width="1024" height="1024" viewBox="0 0 1024 1024">
<g id="icomoon-ignore">
</g>
<path d="M1024 922.561v-188c-4-26-16-44-34-60s-40-22-62-22c-4 0-4 0-6 0h-240c-22 0-42 10-58 28l-66 62c-12 14-30 20-50 20-18 0-36-6-48-22l-62-62c-16-20-38-28-62-28h-230c-4 0-6 0-10 0-40 0-78 24-92 62l-4 6c0 0 0 4 0 4v228c0 0 0 4 0 4l4 10c18 36 54 58 96 58 2 0 2 0 6 0 0 0 2 0 2 0h832c26-4 46-16 62-34s22-44 22-66zM952 742.561v184c0 6-2 10-6 16 0 2-2 2-6 6h-832c-12 0-28-6-34-16 0 0 0 0-2-4v-192c6-6 14-12 28-12h232c4 0 6 0 10 4l62 62c28 28 64 42 102 42s74-14 102-40l66-64c2 0 2-4 6-4 2 0 2 0 2-2h240c16 2 28 12 30 20zM884 826.561c0 0-2 0 0 0h-2c-26 0-44 22-48 44 0 22 20 40 42 44 2 0 2 0 6 0 20 0 36-16 40-38 0 0 0-2 0-2v-4c0-22-16-40-38-44zM730 830.561c-26 0-44 22-44 46s18 44 44 44c0 0 0 0 2 0 26 0 44-22 44-46 0-26-22-44-46-44zM446 666.561c4 6 10 12 16 14l4 4c12 10 28 16 46 16 22 0 44-10 56-26l248-248c28-18 38-56 24-84-8-28-36-50-68-50-2 0-6 0-6 0h-96v-204c0-6 0-12 0-16-2-42-44-78-86-70h-128c-6 0-12 0-16 0-42 2-74 42-70 86v102c-4 20-4 40-4 60 0 6 0 14 0 22 0 6 0 12 0 20h-112c-2 0-6 0-6 0-30 0-56 20-64 48-14 28-8 62 18 84 78 76 162 160 244 242zM652 368.561h114v2l-254 254c0 0 0 0-4 0l-2-6c0 0 0 0 0-2-84-84-170-172-254-252h124c2 0 2 0 6 0 28 0 52-24 52-56 0-16 0-36 0-56 0-8 0-18 0-28 0-8 4-18 4-28v-112c0-8 0-8 0-8s2 0 8 0h128c4 0 6 0 10 0 0 2 0 8 0 12v214c2 46 22 66 68 66z"></path>
</svg>
