<!-- Generated by IcoMoon.io -->
<svg version="1.1" xmlns="http://www.w3.org/2000/svg" width="1024" height="1024" viewBox="0 0 1024 1024">
<g id="icomoon-ignore">
</g>
<path d="M834 498c-28 0-50 22-50 50v356c0 12-10 24-24 24h-640c-12 0-24-8-24-24v-714c0-12 8-24 24-24h428c28 0 48-22 48-46 0-28-20-50-46-50h-430c-68 0-120 56-120 120v714c0 64 52 120 120 120h642c66 0 120-52 120-120v-356c-2-28-24-50-48-50zM874 0c-40 0-78 16-106 44l-470 470c-6 6-8 12-12 18l-70 216c-4 8-4 20 0 30 8 24 36 40 60 30l216-70c6-4 12-6 18-12l470-470c28-28 44-66 44-106 0-82-68-150-150-150zM914 188l-462 460-114 38 38-114 460-462c22-18 52-20 74 0 22 22 22 56 4 78z"></path>
</svg>
