<!-- Generated by IcoMoon.io -->
<svg version="1.1" xmlns="http://www.w3.org/2000/svg" width="1024" height="1024" viewBox="0 0 1024 1024">
<g id="icomoon-ignore">
</g>
<path d="M120 108c-12 0-24 10-24 24v760c0 14 12 24 24 24h784c12 0 24-10 24-24v-760c0-14-12-24-24-24h-784M120 12h784c64 0 118 56 118 120v760c0 64-54 120-118 120h-784c-64 0-118-56-118-120v-760c0-64 54-120 118-120zM718 460h-168v-168c0-26-22-48-50-48-26 0-48 20-48 48v168h-166c-26 0-50 20-50 50 0 26 22 48 50 48h166v168c0 26 20 48 46 48s48-22 48-48v-168h170c24 0 46-20 46-46 2-28-18-50-44-52z"></path>
</svg>
