<svg width="1024" height="1024" viewBox="0 0 1024 1024" fill="none" xmlns="http://www.w3.org/2000/svg">
<path fill-rule="evenodd" clip-rule="evenodd" d="M838.921 27.6769C859.862 30.4923 879.938 36.8413 896.221 53.1243C912.503 69.4066 918.852 89.4808 921.667 110.422C924.294 129.963 924.293 154.364 924.292 182.685L924.291 548.987C924.291 566.631 909.988 580.934 892.344 580.934C874.7 580.934 860.397 566.631 860.397 548.987V184.789C860.397 153.766 860.329 133.712 858.343 118.936C856.48 105.079 853.472 100.736 851.04 98.3039C848.609 95.8728 844.266 92.8648 830.408 91.0016C815.631 89.0151 795.577 88.9472 764.555 88.9472H477.029L477.029 244.397C477.031 272.718 477.032 297.119 474.405 316.66C471.59 337.602 465.24 357.676 448.958 373.958C432.676 390.241 412.602 396.59 391.66 399.406C372.119 402.033 347.717 402.032 319.396 402.03L163.947 402.03V548.987C163.947 566.631 149.644 580.934 132 580.934C114.356 580.934 100.053 566.631 100.053 548.987V370.083C100.053 361.61 103.419 353.484 109.41 347.493L422.492 34.41C428.483 28.4187 436.609 25.0528 445.082 25.0528L766.658 25.0528C794.978 25.0512 819.38 25.0498 838.921 27.6769ZM209.127 338.135H317.293C348.317 338.135 368.37 338.068 383.146 336.081C397.003 334.218 401.346 331.21 403.778 328.778C406.21 326.346 409.218 322.003 411.081 308.146C413.067 293.371 413.135 273.317 413.135 242.294V134.127L209.127 338.135Z" fill="#17375E"/>
<path fill-rule="evenodd" clip-rule="evenodd" d="M116.149 649.249C131.469 640.495 150.984 645.818 159.738 661.137L221.452 769.134L283.167 661.137C291.921 645.818 311.436 640.495 326.755 649.249C342.074 658.003 347.396 677.519 338.642 692.838L258.986 832.233L337.486 949.986C347.273 964.667 343.306 984.502 328.625 994.289C313.944 1004.08 294.109 1000.11 284.322 985.428L221.452 891.12L158.582 985.428C148.795 1000.11 128.96 1004.08 114.279 994.289C99.5985 984.502 95.6312 964.667 105.418 949.986L183.918 832.233L104.262 692.838C95.5082 677.519 100.83 658.003 116.149 649.249ZM435.499 676.987C435.499 659.343 449.802 645.04 467.446 645.04H601.624C619.268 645.04 633.571 659.343 633.571 676.987C633.571 694.631 619.268 708.934 601.624 708.934H499.393V779.216H601.624C619.268 779.216 633.571 793.519 633.571 811.163V967.707C633.571 985.351 619.268 999.654 601.624 999.654H467.446C449.802 999.654 435.499 985.351 435.499 967.707C435.499 950.063 449.802 935.76 467.446 935.76H569.676V843.11H467.446C449.802 843.11 435.499 828.807 435.499 811.163V676.987ZM758.164 645.04C775.808 645.04 790.112 659.343 790.112 676.987V935.76H892.34C909.984 935.76 924.288 950.063 924.288 967.707C924.288 985.351 909.984 999.654 892.34 999.654H758.164C740.52 999.654 726.217 985.351 726.217 967.707V676.987C726.217 659.343 740.52 645.04 758.164 645.04Z" fill="#17375E"/>
</svg>
