<?xml version="1.0" encoding="UTF-8"?>
<svg id="Capa_1" xmlns="http://www.w3.org/2000/svg" version="1.1" viewBox="0 0 1024 1024">
  <!-- Generator: Adobe Illustrator 29.4.0, SVG Export Plug-In . SVG Version: 2.1.0 Build 152)  -->
  <defs>
    <style>
      .st0 {
        fill: #17375e;
      }
    </style>
  </defs>
  <path class="st0" d="M838.4,582.4c-17.7,0-32-14.3-32-32v-294.4c0-46.5,0-77.2-9.4-86.6s-40.1-9.4-86.6-9.4h-224v108.8c0,66.9,0,103.8-28.1,131.9s-65,28.1-131.9,28.1h-108.8v121.6c0,17.7-14.3,32-32,32s-32-14.3-32-32v-153.6c0-4.5.9-8.7,2.6-12.6,1.4-3.3,3.4-6.5,6.1-9.3h0c.2-.3.5-.6.8-.8L431.8,105.4c3.2-3.2,6.8-5.6,10.8-7.1,3.3-1.3,6.8-2.1,10.6-2.2.4,0,.9-.2,1.4,0h255.8c66.9,0,103.8,0,131.9,28.1s28.1,65,28.1,131.9v294.4c0,17.7-14.3,32-32,32v-.1ZM262.8,364.8h63.6c46.5,0,77.2,0,86.6-9.4s9.4-40.1,9.4-86.6v-63.6l-159.6,159.6Z"/>
  <path class="st0" d="M339.2,928c-10.3,0-20.5-5-26.7-14.2l-50.2-75.2-50.2,75.2c-9.8,14.6-29.7,18.6-44.4,8.9-14.7-9.8-18.7-29.7-8.9-44.4l65.8-98.8-67-117.2c-8.8-15.4-3.4-34.9,11.9-43.7,15.3-8.6,34.9-3.4,43.7,11.9l49,85.8,49-85.8c8.8-15.3,28.2-20.6,43.7-11.9,15.3,8.8,20.7,28.3,11.9,43.7l-67,117.2,65.8,98.8c9.8,14.7,5.8,34.6-8.9,44.4s-11.6,5.4-17.7,5.4l.2-.1Z"/>
  <path class="st0" d="M588.84,928h-115.2c-17.7,0-32-14.3-32-32v-249.6c0-17.7,14.3-32,32-32s32,14.3,32,32v217.6h83.2c17.7,0,32,14.3,32,32s-14.3,32-32,32Z"/>
  <path class="st0" d="M838.4,928h-115.2c-17.7,0-32-14.3-32-32s14.3-32,32-32h83.2v-70.4h-83.2c-17.7,0-32-14.3-32-32v-115.2c0-17.7,14.3-32,32-32h115.2c17.7,0,32,14.3,32,32s-14.3,32-32,32h-83.2v51.2h83.2c17.7,0,32,14.3,32,32v134.4c0,17.7-14.3,32-32,32Z"/>
</svg>