<!-- Generated by IcoMoon.io -->
<svg version="1.1" xmlns="http://www.w3.org/2000/svg" width="1024" height="1024" viewBox="0 0 1024 1024">
<g id="icomoon-ignore">
</g>
<path d="M972 478c-30 0-52 26-54 52v240c0 4 0 6 0 6 0 14 0 22 0 34-4 22-12 44-26 62-20 24-48 44-82 46-10 0-18 0-30 0-8 0-14 0-20 0s-12 0-18 0h-474c-14 0-28 0-42 0-6 0-12 0-16 0-22-2-42-12-62-24-24-22-42-50-46-84 0-14 0-30 0-48 0-6 0-12 0-18v-450c0-6 0-16 0-22 0-12 0-28 0-42 0-6 0-12 0-16 4-22 12-42 26-62 20-24 48-42 82-46 10 0 18 0 28 0h256c14 0 26-6 36-18 10-10 16-22 16-36 0-26-26-50-52-50h-266c-36 0-74 10-104 24-36 20-70 50-92 84-22 36-34 80-34 120 0 12 0 22 0 34 0 6 0 12 0 14v518c0 40 10 80 30 114 22 32 50 64 84 82 34 22 74 30 114 30h572c42 0 86-12 120-36 34-22 64-56 82-92 16-30 22-68 26-102v-264c-4-24-26-46-54-50zM714 100h136l-350 350c-6 8-14 14-20 20-12 12-24 24-36 36-10 10-16 24-16 40 0 12 6 28 16 34 10 10 24 16 36 16 14 0 28-6 38-16l402-402c0 0 4-4 4-4v136c0 24 22 46 46 46s46-22 46-46v-256c0-24-22-46-46-46h-258c-26 0-46 22-46 46s20 46 48 46z"></path>
</svg>
