<!-- Generated by IcoMoon.io -->
<svg version="1.1" xmlns="http://www.w3.org/2000/svg" width="1024" height="1024" viewBox="0 0 1024 1024">
<g id="icomoon-ignore">
</g>
<path d="M450 941.125c0-18 6-36 20-50l378-378-378-380c-28-28-28-72 0-100s72-28 100 0l428 430c14 12 22 30 22 50 0 18-8 36-22 50l-428 428c-20 20-50 26-78 16-26-12-42-38-42-66zM4 941.125c0-18 8-36 20-50l380-378-380-380c-26-28-26-72 0-100 28-28 72-28 100 0l430 430c12 12 20 30 20 50 0 18-8 36-20 50l-430 428c-20 20-50 26-76 16-26-12-44-38-44-66z"></path>
</svg>
