<!-- Generated by IcoMoon.io -->
<svg version="1.1" xmlns="http://www.w3.org/2000/svg" width="1024" height="1024" viewBox="0 0 1024 1024">
<g id="icomoon-ignore">
</g>
<path d="M810.873 1008c-4 0-8 0-12-2l-288-154-286 150c-14 8-30 4-38-10-2-4-2-10-2-16l56-326-232-232c-8-8-10-18-6-26 4-10 12-16 22-18l320-48 146-298c2-6 10-12 20-12 12 0 20 6 24 16l146 298 320 44c14 2 24 16 22 28 0 6-4 12-8 16l-232 232 56 326c2 14-8 30-22 32-2 0-2 0-6 0zM510.873 752c6 0 8 0 14 4l202 108-38-232c-4-8 2-16 6-24l166-164-226-34c-8 0-16-8-20-16l-104-210-102 210c-2 8-10 14-22 16l-228 34 166 164c6 6 8 16 8 24l-40 232 202-108c8-4 14-4 16-4z"></path>
</svg>
