<!-- Generated by IcoMoon.io -->
<svg version="1.1" xmlns="http://www.w3.org/2000/svg" width="1024" height="1024" viewBox="0 0 1024 1024">
<g id="icomoon-ignore">
</g>
<path d="M665 757c-8 8-12 16-12 24 0 20 16 36 36 36 10 0 20-2 28-10l120-120 2-4 4-2 2-8v-26l-124-122c-12-14-38-14-52 0-12 14-12 38 0 52l58 58h-632c-6 0-12-4-16-6-6-6-6-12-6-16v-486c0-14 8-22 22-22h476c14 0 22 12 22 22v118c0 20 16 36 36 36 18 0 36-16 36-36v-118c0-52-44-96-96-96h-474c-52 0-96 44-96 96v476c0 26 10 50 28 70 18 18 40 26 68 26h626zM995 357c-18-18-44-30-68-30h-624l58-58c0 0 0 0 2-2 14-14 14-38-2-52-14-14-38-14-52 2l-122 122v2l-2 2v6l-8 12v12l2 6 6 8h2l122 122c14 12 38 12 52 0 14-14 14-40 0-52l-58-58h624c14 0 22 10 22 22v476c0 14-10 22-22 22h-476c-6 0-12-2-16-6-4-6-6-10-6-16v-118c0-18-16-36-36-36-18 0-36 18-36 36v118c0 52 44 96 96 96h476c52 0 96-44 96-96v-470c-2-26-10-50-30-70z"></path>
</svg>
