<!-- Generated by IcoMoon.io -->
<svg version="1.1" xmlns="http://www.w3.org/2000/svg" width="1024" height="1024" viewBox="0 0 1024 1024">
<g id="icomoon-ignore">
</g>
<path d="M788.392 617.962c-124 0-226-102-224-228s102-226 228-224c126 0 224 102 224 228 0 122-102 224-228 224M680.392 467.962c0 14 4 26 18 30 10 4 26 2 34-6 16-16 36-34 52-50 4-6 8-6 12 0 16 16 32 32 48 48 12 12 32 16 46 4 14-10 16-32 6-44 0-4-4-4-6-6-16-16-30-32-46-46-8-8-8-10 0-18 16-16 32-30 46-46 14-10 16-32 6-46-12-12-32-16-46-4-2 2-6 4-6 4-16 16-32 32-44 48-6 6-8 6-16 0-16-16-32-32-48-48-6-4-12-8-20-10-12-2-26 2-34 16s-6 30 6 38c16 16 32 32 48 48 4 6 4 10 0 16-16 16-32 32-48 48-4 8-8 16-8 24M590.392 563.962c-4 10-8 22-8 32 0 40 0 84 0 124 0 16-8 28-20 36-36 22-68 44-100 68-16 10-18 4-18-12 0-68 0-138 0-208 0-24-8-46-24-64-108-120-214-244-318-366-6-6-14-8-12-16 6-8 14-6 22-6h798c8 0 18-4 24 6 2 6-4 10-8 14 24 12 42 32 52 56 6-6 12-14 16-20 28-24 36-58 22-90-16-32-48-48-82-44-142 0-282 0-424 0s-286 0-428 0c-32-4-60 14-74 44-14 26-8 62 14 86 106 124 214 250 322 374 14 12 20 32 20 48 0 90 0 182 0 276-4 18 4 36 22 44 16 8 34 6 48-8 66-46 132-88 200-134 18-10 26-28 26-50 0-42 0-86 0-126-26-16-50-38-70-64"></path>
</svg>
