<!-- Generated by IcoMoon.io -->
<svg version="1.1" xmlns="http://www.w3.org/2000/svg" width="1024" height="1024" viewBox="0 0 1024 1024">
<g id="icomoon-ignore">
</g>
<path d="M511.321 73.423c140 0 282 0 422 0 36-4 68 14 84 44 14 34 6 68-18 94-108 122-214 246-320 370-12 10-18 26-18 42 0 44 0 88 0 132 0 20-8 38-26 50-70 44-134 88-200 134-14 10-34 16-50 8s-24-28-22-46c0-90 0-184 0-274 0-20-6-36-20-50-106-122-216-248-322-372-22-24-28-58-14-88s44-46 76-44c144 0 286 0 428 0M513.321 153.423c-134 0-268 0-402 0-8 0-16-2-22 6 0 8 8 10 12 16 106 124 210 246 316 370 18 16 26 38 26 62 0 72 0 140 0 212 0 16 2 22 18 10 34-22 66-44 100-66 12-8 22-22 22-38 0-40 0-82 0-124 0-18 4-34 18-48 108-124 214-250 320-372 6-6 14-12 12-20-4-10-16-6-22-6-134-2-266-2-398-2"></path>
</svg>
