<!-- Generated by IcoMoon.io -->
<svg version="1.1" xmlns="http://www.w3.org/2000/svg" width="1024" height="1024" viewBox="0 0 1024 1024">
<g id="icomoon-ignore">
</g>
<path d="M510.923 4.923c206 0 390 124 470 312 78 190 34 408-110 554-146 144-362 188-552 110s-312-262-314-466c0-206 122-390 310-470 62-26 130-40 196-40zM510.923 922.923c228 0 412-184 412-412 0-226-184-410-412-410-226 0-410 184-410 410 0 228 184 412 410 412zM428.923 724.923c10 0 18-4 26-10l178-174c8-8 12-16 12-26s-4-20-12-26l-178-180c-14-12-38-12-52 2s-14 36 0 50l152 152-152 148c-12 10-14 26-8 40 4 14 18 24 34 24z"></path>
</svg>
