<svg width="1024" height="1024" viewBox="0 0 1024 1024" fill="none" xmlns="http://www.w3.org/2000/svg">
<path d="M493.598 270.6C504.958 258 509.438 238.2 503.518 220.6C499.838 210 495.838 199.6 491.358 189.6L486.398 178.8C481.598 168.8 476.318 159 470.718 149.6C461.598 134.4 445.598 129.4 431.198 135.4L386.078 154C368.958 136.4 349.278 122 328.158 112.2L318.398 54.2C315.358 35.6 303.838 20.8 288.798 18.6C278.238 16.8 267.518 16 256.638 16H255.518C244.638 16 233.918 16.8 223.358 18.4C208.318 20.6 196.798 35.6 193.758 54L183.998 112.2C162.718 122.2 143.198 136.4 126.078 154L80.7983 135.6C66.3983 129.6 50.3983 134.6 41.2783 149.8C35.6783 159.2 30.3983 169 25.4383 179L20.6383 189.6C16.1583 199.6 12.1583 210 8.47832 220.8C2.55832 238.2 7.03832 258 18.3983 270.8L53.9183 310.4C52.1583 323.8 51.1983 337.8 51.1983 352C51.1983 366.2 52.1583 380.2 53.9183 393.8L18.3983 433.4C7.03832 446 2.55832 465.8 8.47832 483.4C12.1583 494 16.1583 504.4 20.6383 514.6L25.4383 525C30.2383 535.2 35.5183 544.8 41.2783 554.2C50.3983 569.4 66.3983 574.4 80.7983 568.4L125.918 549.8C143.038 567.4 162.718 581.8 183.838 591.6L193.598 649.8C196.638 668.4 208.158 683.2 223.198 685.4C233.918 687 244.798 687.8 255.838 687.8C266.878 687.8 277.758 687 288.478 685.4C303.518 683.2 315.038 668.2 318.078 649.8L327.838 591.6C349.118 581.6 368.638 567.4 385.758 549.8L430.878 568.4C445.278 574.4 461.278 569.4 470.398 554.2C475.998 544.8 481.278 535.2 486.078 525L491.038 514.2C495.518 504.2 499.518 493.8 503.198 483.2C509.118 465.8 504.638 446 493.278 433.2L457.758 393.6C459.518 380 460.478 366 460.478 351.8C460.478 337.6 459.518 323.6 457.758 310L493.278 270.4L493.598 270.6ZM179.198 352C179.198 326.539 187.29 302.121 201.693 284.118C216.095 266.114 235.63 256 255.998 256C276.367 256 295.901 266.114 310.304 284.118C324.707 302.121 332.798 326.539 332.798 352C332.798 377.461 324.707 401.879 310.304 419.882C295.901 437.886 276.367 448 255.998 448C235.63 448 216.095 437.886 201.693 419.882C187.29 401.879 179.198 377.461 179.198 352ZM807.518 1001C817.598 1015.2 833.438 1020.8 847.518 1013.4C855.998 1008.8 864.318 1003.8 872.318 998.2L880.958 992C888.958 986 896.798 979.4 904.318 972.4C916.478 961 920.478 941 915.678 923L900.798 866.6C914.878 845.2 926.398 820.6 934.238 794.2L980.798 782C995.678 778.2 1007.52 763.8 1009.28 745C1010.56 731.6 1011.2 718 1011.2 704.2C1011.2 690.4 1010.56 676.8 1009.28 663.4C1007.52 644.6 995.518 630.2 980.798 626.4L934.238 614C926.238 587.4 914.878 563 900.798 541.6L915.678 485.2C920.478 467.2 916.478 447.2 904.318 435.8C896.798 428.8 888.958 422.2 880.958 416L872.478 410C864.478 404.4 856.158 399.4 847.518 394.8C833.598 387.4 817.758 393 807.518 407.2L775.838 451.6C764.958 449.4 753.758 448.2 742.398 448.2C731.038 448.2 719.838 449.4 708.958 451.6L677.278 407.2C667.198 393 651.358 387.4 637.278 394.8C628.798 399.4 620.478 404.4 612.318 410L603.998 416C595.838 422 588.158 428.6 580.638 435.8C568.478 447.2 564.478 467.2 569.278 485.2L584.158 541.6C570.078 563 558.558 587.6 550.718 614L504.158 626C489.278 629.8 477.438 644.2 475.678 663C474.398 676.4 473.758 690 473.758 703.8C473.758 717.6 474.398 731.2 475.678 744.6C477.438 763.4 489.438 777.8 504.158 781.6L550.718 793.8C558.718 820.4 570.078 844.8 584.158 866.2L569.278 922.6C564.478 940.6 568.478 960.6 580.638 972C588.158 979 595.838 985.6 603.998 991.6L612.638 997.8C620.638 1003.4 628.958 1008.4 637.438 1013C651.358 1020.4 667.198 1014.8 677.438 1000.6L709.118 956.2C719.998 958.4 731.198 959.6 742.558 959.6C753.918 959.6 765.118 958.4 775.998 956.2L807.678 1000.6L807.518 1001ZM742.398 608C752.484 608 762.471 610.483 771.788 615.308C781.106 620.132 789.573 627.203 796.704 636.118C803.836 645.032 809.493 655.615 813.352 667.262C817.212 678.91 819.198 691.393 819.198 704C819.198 716.607 817.212 729.09 813.352 740.738C809.493 752.385 803.836 762.968 796.704 771.882C789.573 780.797 781.106 787.868 771.788 792.692C762.471 797.517 752.484 800 742.398 800C732.313 800 722.326 797.517 713.008 792.692C703.69 787.868 695.224 780.797 688.093 771.882C680.961 762.968 675.304 752.385 671.444 740.738C667.585 729.09 665.598 716.607 665.598 704C665.598 691.393 667.585 678.91 671.444 667.262C675.304 655.615 680.961 645.032 688.093 636.118C695.224 627.203 703.69 620.132 713.008 615.308C722.326 610.483 732.313 608 742.398 608Z" fill="black"/>
</svg>
