<!-- Generated by IcoMoon.io -->
<svg version="1.1" xmlns="http://www.w3.org/2000/svg" width="1024" height="1024" viewBox="0 0 1024 1024">
<g id="icomoon-ignore">
</g>
<path d="M510.923 4.923c206 0 390 124 470 312 78 190 34 408-110 554-146 144-362 188-552 110s-312-262-314-466c0-206 122-390 310-470 62-26 130-40 196-40zM510.923 922.923c228 0 412-184 412-412 0-226-184-410-412-410-226 0-410 184-410 410 0 228 184 412 410 412zM550.923 630.923h-84c0-12 0-20 0-22 0-24 4-46 14-68 14-22 32-42 54-58 16-14 32-28 48-44 8-10 12-22 12-34 0-18-8-36-22-46-16-14-36-22-58-20-22 0-42 6-58 20-18 16-30 38-34 62l-84-12c2-38 20-74 50-100 34-28 78-42 122-40 46-2 92 12 126 42 30 22 48 58 48 96 0 20-6 40-18 58-20 28-46 52-74 74-14 10-26 24-36 38-6 18-8 36-6 54zM466.923 754.923v-92h92v92z"></path>
</svg>
