<!-- Generated by IcoMoon.io -->
<svg version="1.1" xmlns="http://www.w3.org/2000/svg" width="1024" height="1024" viewBox="0 0 1024 1024">
<g id="icomoon-ignore">
</g>
<path d="M1000.372 476.75l-128-126c-8-10-26-10-36 0s-10 26 0 36l128 128c12 12 12 34 0 48-16 12-36 12-50 0l-36-36-348-346c-10-10-28-10-38 0l-382 382c-8 4-14 10-24 10s-18-2-22-10c-16-12-16-34-4-48l126-126 302-300c14-12 34-12 48 0l128 128c8 10 26 10 36 0s10-28 0-36l-128-130c-34-34-86-34-120 0l-306 304-2 4-122 122c-32 34-32 86 0 118 30 32 78 38 114 10v364c0 14 12 26 28 26h694c14 0 28-12 28-26v-364c14 12 30 18 50 18 24 0 46-10 62-28 36-34 36-88 2-122zM190.372 558.75l322-322 320 322v386h-642zM764.372 316.75c4 4 12 8 18 8 8 0 12-4 18-8 10-10 10-28 0-36l-30-30c-4-4-12-8-20-8-6 0-14 4-18 10-10 10-10 28 2 36zM510.372 492.75c-106 0-188 84-188 188s86 186 188 186c48 0 98-18 134-56 34-36 56-82 56-134 0-102-86-184-190-184z"></path>
</svg>
