<svg width="1024" height="1024" viewBox="0 0 1024 1024" fill="none" xmlns="http://www.w3.org/2000/svg">
<path fill-rule="evenodd" clip-rule="evenodd" d="M522.84 97.4325C522.84 79.5912 537.303 65.1279 555.144 65.1279H684.363C702.204 65.1279 716.668 79.5912 716.668 97.4325V269.723C716.668 287.565 702.204 302.028 684.363 302.028H555.144C537.303 302.028 522.84 287.565 522.84 269.723V97.4325ZM587.449 129.737V237.419H652.058V129.737H587.449Z" fill="#17375E"/>
<path fill-rule="evenodd" clip-rule="evenodd" d="M307.305 431.237C307.305 413.395 321.768 398.932 339.609 398.932H468.83C486.671 398.932 501.134 413.395 501.134 431.237V603.53C501.134 621.372 486.671 635.835 468.83 635.835H339.609C321.768 635.835 307.305 621.372 307.305 603.53V431.237ZM371.914 463.541V571.226H436.525V463.541H371.914Z" fill="#17375E"/>
<path fill-rule="evenodd" clip-rule="evenodd" d="M436.527 754.282C436.527 736.441 450.991 721.978 468.832 721.978H598.05C615.892 721.978 630.355 736.441 630.355 754.282V926.576C630.355 944.417 615.892 958.88 598.05 958.88H468.832C450.991 958.88 436.527 944.417 436.527 926.576V754.282ZM501.137 786.587V894.271H565.746V786.587H501.137Z" fill="#17375E"/>
<path fill-rule="evenodd" clip-rule="evenodd" d="M92.0273 194.347C92.0273 176.505 106.491 162.042 124.332 162.042H555.057C572.898 162.042 587.361 176.505 587.361 194.347C587.361 212.188 572.898 226.651 555.057 226.651H124.332C106.491 226.651 92.0273 212.188 92.0273 194.347Z" fill="#17375E"/>
<path fill-rule="evenodd" clip-rule="evenodd" d="M92.0273 840.438C92.0273 822.597 106.491 808.134 124.332 808.134H468.912C486.754 808.134 501.217 822.597 501.217 840.438C501.217 858.28 486.754 872.743 468.912 872.743H124.332C106.491 872.743 92.0273 858.28 92.0273 840.438Z" fill="#17375E"/>
<path fill-rule="evenodd" clip-rule="evenodd" d="M652.055 840.438C652.055 822.597 666.518 808.134 684.359 808.134H899.721C917.563 808.134 932.026 822.597 932.026 840.438C932.026 858.28 917.563 872.743 899.721 872.743H684.359C666.518 872.743 652.055 858.28 652.055 840.438Z" fill="#17375E"/>
<path fill-rule="evenodd" clip-rule="evenodd" d="M436.527 517.392C436.527 499.551 450.991 485.087 468.832 485.087H899.562C917.404 485.087 931.867 499.551 931.867 517.392C931.867 535.233 917.404 549.697 899.562 549.697H468.832C450.991 549.697 436.527 535.233 436.527 517.392Z" fill="#17375E"/>
<path fill-rule="evenodd" clip-rule="evenodd" d="M738.117 194.347C738.117 176.505 752.58 162.042 770.422 162.042H899.64C917.482 162.042 931.945 176.505 931.945 194.347C931.945 212.188 917.482 226.651 899.64 226.651H770.422C752.58 226.651 738.117 212.188 738.117 194.347Z" fill="#17375E"/>
<path fill-rule="evenodd" clip-rule="evenodd" d="M92.0273 517.392C92.0273 499.551 106.491 485.087 124.332 485.087H253.55C271.391 485.087 285.854 499.551 285.854 517.392C285.854 535.233 271.391 549.697 253.55 549.697H124.332C106.491 549.697 92.0273 535.233 92.0273 517.392Z" fill="#17375E"/>
</svg>
