<svg width="1152" height="1024" viewBox="0 0 1152 1024" xmlns="http://www.w3.org/2000/svg">
<g clip-path="url(#clip0_5_4)">
</g>
<path d="M1056 160V832C1056 849.6 1041.6 864 1024 864H640C640 775.6 568.4 614 480 614H352C263.6 614 192 775.6 192 864H128C110.4 864 96 849.6 96 832V160H1056ZM128 64C57.4 64 0 121.4 0 192V832C0 902.6 57.4 960 128 960H1024C1094.6 960 1152 902.6 1152 832V192C1152 121.4 1094.6 64 1024 64H128ZM544 422C544 388.052 530.514 355.495 506.51 331.49C482.505 307.486 449.948 294 416 294C382.052 294 349.495 307.486 325.49 331.49C301.486 355.495 288 388.052 288 422C288 455.948 301.486 488.505 325.49 512.51C349.495 536.514 382.052 550 416 550C449.948 550 482.505 536.514 506.51 512.51C530.514 488.505 544 455.948 544 422ZM752 326C725.4 326 704 347.4 704 374C704 400.6 725.4 422 752 422H912C938.6 422 960 400.6 960 374C960 347.4 938.6 326 912 326H752ZM752 518C725.4 518 704 539.4 704 566C704 592.6 725.4 614 752 614H912C938.6 614 960 592.6 960 566C960 539.4 938.6 518 912 518H752Z" fill="black"/>
</svg>
