<!-- Generated by IcoMoon.io -->
<svg version="1.1" xmlns="http://www.w3.org/2000/svg" width="1024" height="1024" viewBox="0 0 1024 1024">
<g id="icomoon-ignore">
</g>
<path d="M510 96c-228 0-414 186-414 414 0 112 44 218 120 294 162 162 424 162 588 0 164-160 162-424 0-588-76-76-182-120-294-120M510 0c286 0 514 228 514 510s-228 514-514 514c-284 0-510-228-510-514 0-282 228-510 510-510zM610 292c0 18-8 36-20 48-26 26-68 26-94 2 0 0 0 0-2-2-12-12-20-32-20-48 0-20 8-36 20-52 26-26 68-26 94-2 0 0 0 0 2 2 14 16 22 32 20 52M604 750c-18 8-36 16-48 22-12 4-26 6-40 6-22 2-42-6-56-22-14-14-22-34-20-54 0-10 0-18 4-28 0-8 2-18 4-30l24-110c2-8 6-18 6-28 2-8 2-16 2-24 0-10-2-20-8-30-6-6-16-8-26-6-8 0-14 2-20 4s-10-26-10-26c18-8 32-14 46-22 16-4 30-6 44-10 22-2 40 8 56 22 14 14 18 34 18 56 0 4 0 12-2 24 0 12-2 22-4 32l-24 106c-4 8-6 18-6 28-2 8-2 18-2 24 0 10 2 22 8 30 6 4 16 8 26 6 8 0 14-2 22-4 4 4 6 34 6 34z"></path>
</svg>
