<svg width="1024" height="1024" viewBox="0 0 1024 1024" fill="none" xmlns="http://www.w3.org/2000/svg">
<path d="M80 96C53.4 96 32 117.4 32 144V240C32 266.6 53.4 288 80 288H176C202.6 288 224 266.6 224 240V144C224 117.4 202.6 96 176 96H80ZM384 128C348.6 128 320 156.6 320 192C320 227.4 348.6 256 384 256H960C995.4 256 1024 227.4 1024 192C1024 156.6 995.4 128 960 128H384ZM384 448C348.6 448 320 476.6 320 512C320 547.4 348.6 576 384 576H960C995.4 576 1024 547.4 1024 512C1024 476.6 995.4 448 960 448H384ZM384 768C348.6 768 320 796.6 320 832C320 867.4 348.6 896 384 896H960C995.4 896 1024 867.4 1024 832C1024 796.6 995.4 768 960 768H384ZM32 464V560C32 586.6 53.4 608 80 608H176C202.6 608 224 586.6 224 560V464C224 437.4 202.6 416 176 416H80C53.4 416 32 437.4 32 464ZM80 736C53.4 736 32 757.4 32 784V880C32 906.6 53.4 928 80 928H176C202.6 928 224 906.6 224 880V784C224 757.4 202.6 736 176 736H80Z" fill="black"/>
</svg>
