<!-- Generated by IcoMoon.io -->
<svg version="1.1" xmlns="http://www.w3.org/2000/svg" width="1024" height="1024" viewBox="0 0 1024 1024">
<g id="icomoon-ignore">
</g>
<path d="M990 518v-38l-178-182c-24-24-58-24-80 0-20 20-20 54 0 78l70 70h-322c-8 0-14 0-22 2-12 8-26 18-30 32-6 14-6 30 0 44 4 6 6 18 14 20 6 8 14 10 20 14 8 4 14 8 20 4h316l-68 68c-8 8-10 14-14 20-8 14-8 32 0 46 6 12 16 26 30 30s32 4 46 0c6-4 12-6 20-14l168-168 6-10 4-4zM668 914h-520v-802h526c14 0 32-6 38-20 10-10 18-28 18-40 0-14-10-28-22-34-12-8-26-14-40-14h-634v1016h634c14 0 30-6 38-20 10-10 16-28 16-40-2-24-26-46-54-46z"></path>
</svg>
