<!-- Generated by IcoMoon.io -->
<svg version="1.1" xmlns="http://www.w3.org/2000/svg" width="1024" height="1024" viewBox="0 0 1024 1024">
<g id="icomoon-ignore">
</g>
<path d="M218.125 523c-24 0-48 8-68 22-2 2-2 4-2 6l20 26c0 4 4 4 6 2 14-8 28-12 44-12s30 4 44 12c36 24 42 72 18 108-2 2 0 4 2 6l26 20c2 2 4 0 6-2 16-20 22-44 22-68 0-66-52-120-118-120zM268.125 707c-2-2-4-2-6-2-14 8-28 14-44 14s-30-6-44-14c-36-24-42-72-18-108 2-2 0-4-2-6l-26-20c-2-2-4 0-6 2-16 20-22 44-22 68 0 66 52 118 118 118 24 0 48-8 68-22 2-2 2-4 2-6zM1018.125 817h-60v-536c0-2-2-4-4-4h-100c-2 0-4 2-4 4v536h-22v-454c0-2-2-4-4-4h-100c-2 0-4 2-4 4v454h-22v-206c0-4-2-6-4-6h-100c-2 0-4 2-4 6v206h-22v-272c0-4-2-6-4-6h-102c-2 0-4 2-4 6v272h-28c-2 0-4 2-4 4v34c0 2 2 4 4 4h588c2 0 4-2 4-4v-34c2-2 0-4-4-4zM522.125 817h-22v-236h22zM654.125 817h-22v-170h22zM784.125 817h-22v-414h22zM916.125 319v498h-22v-498zM218.125 695c4 0 6 0 12 0 28-6 48-32 40-62-6-30-32-50-62-42-26 4-46 26-46 52 0 28 26 52 56 52zM384.125 725c4-6 6-16 8-24l38-10c2 0 4-2 4-4v-92c0-2-2-4-4-4l-38-10c-2-8-6-14-8-24l22-32c2-2 0-6 0-8l-18-18 88-88c6 4 12 6 20 6 4 0 10 0 14-2l34 38c-8 18-6 40 6 58 18 24 54 28 76 8 24-16 28-52 8-74l100-176c2 0 4 0 6 0 22 0 42-14 48-34h130c6 16 18 28 32 32 28 10 58 0 70-30 10-28 0-58-30-70-28-10-58 0-70 30h-130c-6-14-18-26-30-32-6 0-14-2-20-2-2 0-2 0-4 0-12 0-20 4-30 12-24 18-28 52-8 76l-100 176c-2 0-4 0-6 0-4 0-10 0-16 2l-32-40c8-18 6-44-8-58-20-22-54-24-76-4-16 12-20 36-12 56l-94 92-18-16c-2-4-4-4-6 0l-32 22c-8-6-16-8-24-10l-10-38c0-2-2-4-4-4h-88c-2 0-4 2-4 4l-10 38c-8 2-14 6-24 10l-32-22c-2-4-6 0-8 0l-66 66c-2 2-2 4 0 6l22 32c-4 8-6 16-8 26l-38 8c-2 0-4 2-4 4v92c0-2 2-2 4 0l38 10c2 8 6 16 8 24l-22 32c-2 4 0 6 0 8l66 66c2 2 6 2 8 0l32-22c6 4 16 6 24 8l10 38c0 2 2 4 4 4h92c2 0 4-2 4-4l10-38c8-2 14-6 24-8l32 22c2 2 6 0 8 0l66-66c2-2 2-4 0-8zM334.125 723c0 2 0 4 0 4l18 26-22 22-26-18c-2 0-4 0-4 0l-10 6c-10 6-24 12-36 14l-12 4c-2 0-2 4-4 6l-6 30h-30l-6-30c0-2-2-6-4-6l-10-2c-12-4-26-8-36-14l-10-6c-2 0-4 0-4 0l-26 18-22-22 18-26c0-2 0-4 0-4l-8-12c-6-10-12-24-14-36l-2-12c0-2-4-2-6-4l-30-6v-32l30-6c2 0 6-2 6-4l2-12c4-6 8-20 14-30l6-10c0-2 0-4 0-4l-18-26 22-22 28 16c2 0 4 0 4 0l10-6c10-6 24-12 36-14l12-2c2 0 2-4 4-6l6-30h32l6 30c0 2 2 6 4 6l12 2c12 4 26 8 38 14l8 6c2 0 4 0 4 0l26-18 22 22-16 26c0 2 0 4 0 4l4 10c6 10 12 24 14 36l4 12c0 2 2 2 4 4l30 6v32l-30 6c-2 0-4 2-4 4l-4 12c-4 12-8 26-14 38zM728.125 219c0-8 6-12 12-12s10 4 10 12c0 6-4 10-10 10-2 0-4 0-6-2s-6-6-6-8zM582.125 477c0-6 4-10 10-10s12 4 12 10c0 8-6 12-12 12-2 0-4 0-6-2-2 0-4-4-4-10zM506.125 363c0 8-4 12-10 12-2 0-8-2-10-4-2 0-2-4-2-8 0-6 4-10 12-10 6 0 10 6 10 10zM958.125 219c0-8 4-12 10-12 8 0 12 4 12 12 0 6-4 10-12 10-2 0-4 0-6-2s-4-6-4-8z"></path>
</svg>
