<!-- Generated by IcoMoon.io -->
<svg version="1.1" xmlns="http://www.w3.org/2000/svg" width="1024" height="1024" viewBox="0 0 1024 1024">
<g id="icomoon-ignore">
</g>
<path d="M897.482 407h-276c-18 4-32 18-32 36 0 0 0 0 0 2 0 18 14 32 32 32h272c20 0 36-14 36-32 0-20-12-34-32-38zM897.482 759h-100c-20 0-36 14-36 32 0 16 16 34 32 34h98c16 0 34-14 34-32 4-8 0-18-6-26-6-2-14-8-22-8zM893.482 497h-230c0 0-4 0-4 0-18 4-32 18-28 36 0 18 14 32 32 32h230c0 0 4 0 4 0 16-2 32-18 28-34 0-18-14-34-32-34zM923.482 621c2-6 2-14 0-20-6-10-18-18-30-16h-272c-20 0-34 16-34 32 0 22 14 36 32 36h272c16 0 32-14 32-32zM1007.482 267l-242-244h-4l-2-2h-468c-20 0-36 14-38 32v170c-74 8-140 44-188 102-50 58-72 134-66 214 10 134 116 242 250 260v170c0 0 0 0 0 2 0 18 16 32 32 32h700c0 0 0 0 4 0 16 0 32-14 32-32v-670l8-2v-6c0-12-6-20-18-26zM789.482 257v-120l116 118h-116zM513.482 527c-8 108-94 196-204 204h-36c-108-8-194-92-202-200-8-120 80-226 202-238h36c58 2 114 32 152 76s54 100 52 158zM323.482 799c70-8 138-40 184-96 50-58 76-134 70-212-6-140-114-254-254-268v-132h394v202c0 0 0 0 0 2 0 18 16 34 32 34h202v604h-628zM435.482 389c-6-2-16-6-22-6-12 0-20 6-26 12l-132 156-64-56c-8-4-14-6-24-6s-20 6-26 14c-6 6-6 16-6 24s6 18 12 24l90 76c6 6 16 8 24 8 12 0 20-6 26-14l156-184c6-6 6-16 6-24s-6-18-14-24z"></path>
</svg>
