<!-- Generated by IcoMoon.io -->
<svg version="1.1" xmlns="http://www.w3.org/2000/svg" width="1024" height="1024" viewBox="0 0 1024 1024">
<g id="icomoon-ignore">
</g>
<path d="M692.546 747.843c-12 14-24 36-24 52s8 38 24 52c14-14 26-36 26-52-2-20-10-36-26-52zM654.546 803.843c0-26 10-48 32-64-10-8-26-14-42-14-40 0-76 36-76 78 0 40 36 76 76 76 16 0 32-4 42-12-18-16-32-42-32-64zM740.546 725.843c-16 0-32 4-40 14 16 16 32 38 32 64 0 24-10 48-32 64 8 6 24 12 40 12 42 0 78-36 78-76 2-42-36-78-78-78zM962.546 313.843c-10-10-26-10-36 0l-38 38c-6-124-42-214-106-272-70-64-182-90-332-76-14 0-26 12-22 28 2 16 12 26 28 22 138-12 234 6 298 64 54 48 80 122 86 230l-38-34c-10-10-26-10-36 0s-10 26 0 34l86 80c8 4 10 8 16 8 8 0 14-4 20-8l76-80c8-8 8-24-2-34zM542.546 969.843c-138 12-234-6-298-64-54-48-80-122-86-230l38 34c8 4 10 6 16 6 8 0 14-2 20-8 10-10 10-26 0-36l-86-80c-10-10-26-10-36 0l-76 80c-10 10-10 26 0 36 10 8 26 8 34 0l40-36c6 124 40 214 104 272 62 54 144 80 256 80 26 0 52 0 80-4 14 0 26-12 24-28 0-12-14-26-30-22zM942.546 469.843h-498c-30 0-56 26-56 54v350c0 28 26 54 56 54h60c10 0 20-10 16-20 0-8-10-18-20-16h-60c-10 0-20-8-20-18v-196h536v196c0 10-10 18-20 18h-54c-10 0-16 8-16 16 0 10 6 20 16 20h60c30 0 54-26 54-54v-350c4-28-22-54-54-54zM424.546 523.843c0-8 6-18 20-18h498c10 0 20 10 20 18v32h-538zM620.546 111.843h-504c-28 0-54 22-54 54v350c0 28 26 54 54 54h62c10 0 18-10 16-20 0-10-10-18-20-16h-58c-8 0-18-10-18-18v-196h534v118h42l2-224c-2-2 0-2 0 0v-48c-2-28-28-54-56-54zM100.546 165.843c0-12 8-18 16-18h500c10 0 20 8 20 18v32h-536zM360.546 479.843l-20-102c0-14-8-20-18-20h-78v6c16 4 36 10 46 16 2 0 6 8 6 16l36 138h22v-16c0-38 28-70 64-76l32-80h-46z"></path>
</svg>
