<svg width="1024" height="1024" viewBox="0 0 1024 1024" fill="none" xmlns="http://www.w3.org/2000/svg">
<path d="M511.945 139.35C516.415 139.35 520.665 140.29 524.505 141.91C527.845 143.35 531.005 145.35 533.785 147.97L533.815 147.97C533.815 147.97 533.815 148.03 533.845 148.03C534.095 148.28 534.375 148.53 534.655 148.78L807.625 421.78C820.125 434.28 820.125 454.53 807.625 467.03C795.125 479.53 774.875 479.53 762.375 467.03L543.935 248.59L543.935 854C543.935 871.69 529.625 886 511.935 886C494.245 886 479.935 871.69 479.935 854L479.935 248.59L261.495 467.03C248.995 479.53 228.745 479.53 216.245 467.03C203.745 454.53 203.745 434.28 216.245 421.78L489.215 148.78C489.495 148.53 489.775 148.28 490.025 148.03C490.055 148.03 490.055 147.97 490.055 147.97L490.085 147.97C492.865 145.35 496.025 143.35 499.365 141.91C503.205 140.29 507.455 139.35 511.925 139.35L511.945 139.35Z" fill="#17375E"/>
</svg>
