<?xml version="1.0" encoding="UTF-8"?>
<svg id="Capa_1" xmlns="http://www.w3.org/2000/svg" version="1.1" viewBox="0 0 1024 1024">
  <!-- Generator: Adobe Illustrator 29.0.0, SVG Export Plug-In . SVG Version: 2.1.0 Build 186)  -->
  <defs>
    <style>
      .st0 {
        fill: #17375e;
      }
    </style>
  </defs>
  <path class="st0" d="M276.7,959.9c-24,0-40.8-8.2-50.9-15.6-19.7-14.2-49.8-50.9-30.4-135.2l29.5-128.8c3-13.5-3.5-36.5-13.1-46.2l-103.2-104.1c-38.3-38.6-52.7-80.9-40.4-119,7.1-21.9,29.7-60.6,101.5-72.7l66.4-11.1c17.2-3.2,33.9,8.8,36.8,26.3,2.9,17.4-8.8,33.9-26.3,36.8l-66.3,11.1c-27.7,4.7-46.8,15.5-51.2,29.2-4.4,13.8,4.9,34.1,24.9,54.3l103.2,104c24.9,25.1,37.9,70.4,30.2,105.4l-29.6,128.9c-9.4,41.2-2.9,63.1,5.6,69.2,8.4,6.1,30.8,5.6,66.6-15.8l124.4-74.2c33.2-19.6,82.7-19.4,115.2,0l124.3,74.1c15.2,9.1,20.2,28.7,11.1,43.9-9.1,15.2-28.9,20.1-43.9,11.1l-124.4-74.2c-12.4-7.4-37.1-7.3-49.8,0l-124.2,74.1c-35.4,21.1-63.9,28.2-86.1,28.2ZM789.4,813.8c-14.6,0-27.8-10-31.2-24.8l-21.7-94.3c-7.8-35.2,5.2-80.6,30.2-105.6l103.1-104c20.2-20.2,29.6-40.4,25.2-54.2-4.4-13.7-23.6-24.6-51.4-29.3l-132.7-22.2c-32.6-5.5-68.1-32-82.5-61.6l-73.1-147.4c-13.1-26.5-32-41.7-43.4-42.3-13.9,0-30.7,16.2-43.7,42.3l-51.4,125c-6.8,16.4-25.4,24.1-41.8,17.4-16.3-6.7-24.1-25.4-17.4-41.8l52.3-127.1c34.7-69.7,78.6-79.9,101.9-79.9h.2c23.2,0,67.2,10.2,100.5,77.9l73.2,147.6c5.4,11.2,23.4,24.6,35.7,26.7l132.7,22.2c72.1,12.1,94.7,50.9,101.8,72.9,7.1,22.1,11.2,66.8-40.8,118.8l-103,103.9c-9.8,9.8-16.2,32.8-13.2,46.4l21.6,94.1c3.9,17.2-6.8,34.4-24,38.4-2.4.6-4.8.8-7.2.8Z"/>
  <path class="st0" d="M803.2,960c-9.3,0-18.6-4.1-24.9-11.9L175.1,199.2c-11.1-13.8-8.9-33.9,4.8-45,13.7-11.2,33.9-8.9,45,4.8l603.2,748.8c11.1,13.8,8.9,33.9-4.9,45-5.9,4.8-13,7.1-20.1,7.1Z"/>
</svg>