<?xml version="1.0" encoding="UTF-8"?>
<svg id="Capa_1" xmlns="http://www.w3.org/2000/svg" version="1.1" viewBox="0 0 1024 1024">
  <!-- Generator: Adobe Illustrator 29.2.1, SVG Export Plug-In . SVG Version: 2.1.0 Build 116)  -->
  <defs>
    <style>
      .st0 {
        fill: #17375e;
      }
    </style>
  </defs>
  <path class="st0" d="M440.4,809h-236.1c-19.4,0-30.9,0-39.2-1.2-3.8-.5-5.7-1.1-6.6-1.5-.2,0-.3-.2-.4-.2h0s0-.1,0-.1c0,0-.1-.2-.2-.4-.4-.9-.9-2.8-1.5-6.6-1.1-8.3-1.2-20-1.2-39.5v-406h649.4v208c0,16.4,13.2,29.7,29.5,29.7s29.5-13.3,29.5-29.7V204.9c0-17.8,0-34.2-1.7-47.4-1.9-14.1-6.3-29-18.5-41.2-12.2-12.2-26.9-16.7-40.9-18.6-13.1-1.8-29.4-1.7-47.1-1.7H204.2c-17.7,0-34,0-47.1,1.7-14,1.9-28.8,6.4-40.9,18.6-12.2,12.2-16.6,27.1-18.5,41.2-1.8,13.2-1.7,29.6-1.7,47.4v554.6c0,17.8,0,34.2,1.7,47.4,1.9,14.1,6.3,29,18.5,41.2,12.2,12.2,26.9,16.7,40.9,18.6,13.1,1.8,29.4,1.7,47.1,1.7h236.1c16.3,0,29.5-13.3,29.5-29.7s-13.2-29.7-29.5-29.7ZM156.2,165.4c.5-3.8,1.1-5.8,1.5-6.6,0-.2.2-.3.2-.4,0,0,0,0,0,0h0c0,0,.2-.2.4-.2.9-.4,2.8-1,6.6-1.5,8.3-1.1,19.9-1.2,39.2-1.2h551c19.4,0,31,0,39.2,1.2,3.8.5,5.7,1.1,6.6,1.5.2,0,.3.2.4.2,0,0,0,0,0,0h0c0,.2.1.3.2.5.4.9,1,2.8,1.5,6.6,1.1,8.3,1.2,20,1.2,39.5v89.1H155v-89.1c0-19.5,0-31.2,1.2-39.5Z"/>
  <path class="st0" d="M361.7,472.3h-78.7c-16.3,0-29.5,13.3-29.5,29.7s13.2,29.7,29.5,29.7h78.7c16.3,0,29.5-13.3,29.5-29.7s-13.2-29.7-29.5-29.7Z"/>
  <path class="st0" d="M440.4,472.3c-16.3,0-29.5,13.3-29.5,29.7s13.2,29.7,29.5,29.7h236.1c16.3,0,29.5-13.3,29.5-29.7s-13.2-29.7-29.5-29.7h-236.1Z"/>
  <path class="st0" d="M361.7,630.8h-78.7c-16.3,0-29.5,13.3-29.5,29.7s13.2,29.7,29.5,29.7h78.7c16.3,0,29.5-13.3,29.5-29.7s-13.2-29.7-29.5-29.7Z"/>
  <path class="st0" d="M716.2,739.7h-.3c-21.7,0-39.4,17.7-39.4,39.6s17.6,39.6,39.4,39.6h.3c21.7,0,39.4-17.7,39.4-39.6s-17.6-39.6-39.4-39.6Z"/>
  <path class="st0" d="M937.5,763.3h0c0-.1,0-.1-.1-.2,0-.1-.1-.3-.2-.4-.2-.3-.5-.8-.9-1.4-.8-1.2-1.9-2.8-3.3-4.9-2.9-4.1-7-10-12.3-16.9-10.6-13.8-26-32.3-45-50.9-37-36-93.4-77.7-159.7-77.7s-122.6,41.6-159.7,77.7c-19.1,18.6-34.5,37.1-45,50.9-5.3,6.9-9.4,12.7-12.3,16.9-1.4,2.1-2.6,3.7-3.3,4.9-.4.6-.7,1.1-.9,1.4-.1.2-.2.3-.2.4,0,0,0,0-.1.1h0s0,0,0,0l-10.2,16,10.2,16h0c0,.1,0,.1.1.2,0,.1.1.3.2.4.2.3.5.8.9,1.4.8,1.2,1.9,2.8,3.3,4.9,2.9,4.1,7,9.9,12.3,16.9,10.6,13.8,25.9,32.3,45,50.9,37,36,93.4,77.7,159.7,77.7s122.6-41.6,159.7-77.7c19.1-18.6,34.5-37.1,45-50.9,5.3-6.9,9.4-12.7,12.3-16.9,1.4-2.1,2.6-3.7,3.3-4.9.4-.6.7-1.1.9-1.4.1-.2.2-.3.2-.4,0,0,0,0,.1-.1h0s0,0,0,0l10.2-16-10.2-16ZM873.8,782.9c-9.3,12.2-22.8,28.4-39.3,44.4-34.2,33.3-76.2,61-118.6,61s-84.4-27.7-118.6-61c-16.5-16.1-29.9-32.3-39.3-44.4-.9-1.2-1.8-2.4-2.6-3.5.8-1.1,1.7-2.3,2.6-3.5,9.3-12.2,22.8-28.4,39.3-44.4,34.2-33.3,76.2-61,118.6-61s84.4,27.7,118.6,61c16.5,16.1,29.9,32.3,39.3,44.4.9,1.2,1.7,2.4,2.6,3.5-.8,1.1-1.7,2.3-2.6,3.5Z"/>
</svg>