<svg width="1024" height="1024" viewBox="0 0 1024 1024" fill="none" xmlns="http://www.w3.org/2000/svg">
<path d="M898.143 595.285C877.203 595.285 860.285 578.367 860.285 557.428V209.142C860.285 154.131 860.285 117.812 849.165 106.691C838.044 95.5706 801.725 95.5706 746.714 95.5706H481.714V224.285C481.714 303.43 481.714 347.084 448.471 380.327C415.228 413.571 371.574 413.57 292.428 413.57H163.714V557.428C163.714 578.367 146.797 595.285 125.857 595.285C104.917 595.285 88 578.367 88 557.428V375.713C88 370.39 89.0647 365.421 91.0759 360.807C92.7321 356.903 95.0982 353.117 98.2924 349.805C98.529 349.45 98.8839 349.095 99.2388 348.858L417.12 30.9769C420.906 27.1912 425.165 24.3519 429.897 22.5773C433.801 21.0394 437.942 20.093 442.437 19.9747C442.911 19.9747 443.502 19.7381 444.094 19.9747H746.714C825.859 19.9747 869.513 19.9747 902.756 53.218C936 86.4612 936 130.115 936 209.26V557.546C936 578.486 919.082 595.403 898.143 595.403V595.285ZM217.187 337.856H292.428C347.44 337.856 383.759 337.856 394.879 326.736C406 315.615 406 279.296 406 224.285V149.044L217.187 337.856Z" fill="#17375E"/>
<path d="M739.143 1004.14C718.203 1004.14 701.286 987.224 701.286 966.284V670.999C701.286 650.059 718.203 633.142 739.143 633.142H898.143C919.082 633.142 936 650.059 936 670.999C936 691.938 919.082 708.856 898.143 708.856H777V769.427H852.714C873.654 769.427 890.571 786.345 890.571 807.284C890.571 828.224 873.654 845.141 852.714 845.141H777V966.284C777 987.224 760.082 1004.14 739.143 1004.14ZM125.857 1004.14C104.917 1004.14 88 987.224 88 966.284V670.999C88 650.059 104.917 633.142 125.857 633.142H216.714C275.156 633.142 322.714 680.7 322.714 739.142C322.714 797.583 275.156 845.141 216.714 845.141H163.714V966.284C163.714 987.224 146.797 1004.14 125.857 1004.14ZM163.714 769.427H216.714C233.395 769.427 247 755.822 247 739.142C247 722.461 233.395 708.856 216.714 708.856H163.714V769.427ZM466.571 981.427H421.143C400.203 981.427 383.286 964.51 383.286 943.57V670.999C383.286 650.059 400.203 633.142 421.143 633.142H466.571C562.634 633.142 640.714 711.34 640.714 807.284C640.714 903.229 562.634 981.427 466.571 981.427ZM459 905.713H466.571C520.873 905.713 565 861.586 565 807.284C565 752.983 520.873 708.856 466.571 708.856H459V905.713Z" fill="#17375E"/>
</svg>
