<?xml version="1.0" encoding="UTF-8"?>
<svg id="Capa_1" xmlns="http://www.w3.org/2000/svg" version="1.1" viewBox="0 0 1024 1024">
  <!-- Generator: Adobe Illustrator 29.0.0, SVG Export Plug-In . SVG Version: 2.1.0 Build 186)  -->
  <defs>
    <style>
      .st0 {
        fill: #17375e;
      }
    </style>
  </defs>
  <path class="st0" d="M583.9,156.1l73.2,147.6c10,20.6,36.6,40.3,59.1,44l132.7,22.2c84.9,14.3,104.8,76.3,43.7,137.6l-103.2,104c-17.5,17.6-27,51.6-21.6,75.9l29.5,128.7c23.3,101.9-30.4,141.3-119.8,88.1l-124.4-74.2c-22.5-13.4-59.5-13.4-82.4,0l-124.4,74.2c-89,53.3-143.1,13.4-119.8-88.1l29.5-128.7c5.4-24.3-4.2-58.3-21.6-75.9l-103.2-104c-60.7-61.2-41.2-123.3,43.7-137.6l132.7-22.2c22-3.8,48.7-23.5,58.6-44l73.2-147.6c39.9-80.1,104.8-80.1,144.3,0Z"/>
</svg>