<?xml version="1.0" encoding="UTF-8"?>
<svg id="Capa_1" xmlns="http://www.w3.org/2000/svg" version="1.1" viewBox="0 0 1024 1024">
  <!-- Generator: Adobe Illustrator 29.4.0, SVG Export Plug-In . SVG Version: 2.1.0 Build 152)  -->
  <defs>
    <style>
      .st0 {
        fill: #17375e;
      }
    </style>
  </defs>
  <path class="st0" d="M512,885.31c-4.47,0-8.72-.94-12.56-2.56-3.34-1.44-6.5-3.44-9.28-6.06h-.03s0-.06-.03-.06c-.25-.25-.53-.5-.81-.75l-272.97-273c-12.5-12.5-12.5-32.75,0-45.25s32.75-12.5,45.25,0l218.44,218.44V170.66c0-17.69,14.31-32,32-32s32,14.31,32,32v605.41l218.44-218.44c12.5-12.5,32.75-12.5,45.25,0s12.5,32.75,0,45.25l-272.97,273c-.28.25-.56.5-.81.75-.03,0-.03.06-.03.06h-.03c-2.78,2.62-5.94,4.62-9.28,6.06-3.84,1.62-8.09,2.56-12.56,2.56Z"/>
</svg>