<?xml version="1.0" encoding="UTF-8"?>
<svg id="Capa_1" xmlns="http://www.w3.org/2000/svg" version="1.1" viewBox="0 0 1024 1024">
  <!-- Generator: Adobe Illustrator 29.0.0, SVG Export Plug-In . SVG Version: 2.1.0 Build 186)  -->
  <defs>
    <style>
      .st0 {
        fill: #17375e;
      }
    </style>
  </defs>
  <path class="st0" d="M828.4,471.3c47.1-47.2,73.1-73.2,73.1-112.9s-25.9-65.6-73.4-113.2l-49.6-49.6c-47.2-47.2-73.2-73.1-112.9-73.1s-65.8,26-113.1,73.4l-409.6,409.6c-20.1,20.1-32.3,32.2-39.5,49.9-7.3,17.6-7.3,34.8-7.3,63.2v49.4c0,66.9,0,103.8,28.1,131.9,28.1,28.1,65,28.1,131.9,28.1h49.3c28.4,0,45.6,0,63.2-7.3,17.6-7.3,29.8-19.4,49.9-39.6l409.6-409.6.2-.2ZM373.2,835.9c-14.5,14.5-23.2,23.2-29.1,25.7s-17.6,2.4-38.8,2.4h-49.3c-46.5,0-77.3,0-86.6-9.4-9.4-9.4-9.4-40.1-9.4-86.6v-49.4c0-21.2,0-32.9,2.5-38.8,2.4-5.8,11.2-14.6,25.6-29.1l323.9-323.9,185.2,185.2-323.9,323.9ZM782.9,426.3l-40.5,40.5-185.2-185.2,40.6-40.6c32.9-32.8,54.6-54.5,67.8-54.5s34.9,21.7,67.9,54.6l49.8,49.8c32.6,32.7,54.2,54.3,54.2,67.5s-21.6,34.9-54.4,67.7c0,0-.1.2-.2.2Z"/>
  <path class="st0" d="M896,864h-345.6c-17.7,0-32,14.3-32,32s14.3,32,32,32h345.6c17.7,0,32-14.3,32-32s-14.3-32-32-32Z"/>
</svg>