<?xml version="1.0" encoding="UTF-8"?>
<svg id="Capa_1" xmlns="http://www.w3.org/2000/svg" version="1.1" viewBox="0 0 1024 1024">
  <!-- Generator: Adobe Illustrator 29.0.0, SVG Export Plug-In . SVG Version: 2.1.0 Build 186)  -->
  <defs>
    <style>
      .st0 {
        fill: #17375e;
      }
    </style>
  </defs>
  <path class="st0" d="M747.5,960c-22.2,0-50.9-7.1-86.4-28.2l-124.4-74.2c-12.4-7.4-37.1-7.3-49.8,0l-124.2,74.1c-73.7,44-117.4,26.8-137,12.6-19.7-14.2-49.8-50.9-30.4-135.2l29.5-128.8c3-13.5-3.5-36.5-13.1-46.2l-103.2-104.1c-38.3-38.6-52.7-80.9-40.4-119,7.1-21.9,29.7-60.6,101.5-72.7l132.7-22.2c12-2.1,29.8-15.4,35.1-26.4l73.3-147.9c33.8-67.7,77.7-77.8,101-77.8h.2c23.2,0,67.2,10.2,100.5,77.9l73.2,147.6c5.4,11.2,23.4,24.6,35.7,26.7l132.7,22.2c72.1,12.1,94.7,50.9,101.8,72.9,7.1,22.1,11.2,66.8-40.8,118.8l-103,103.9c-9.8,9.8-16.2,32.8-13.2,46.4l29.5,128.5c19.4,84.7-10.6,121.2-30.2,135.4-10.1,7.4-26.8,15.6-50.8,15.6ZM512.1,788c20.6,0,41.1,4.9,57.4,14.6l124.3,74.1c36,21.5,58.4,22.1,66.8,15.9,8.4-6.1,14.9-28,5.4-69.4l-29.6-128.7c-7.8-35.2,5.2-80.6,30.2-105.6l103.1-104c20.2-20.2,29.6-40.4,25.2-54.2-4.4-13.7-23.6-24.6-51.4-29.3l-132.7-22.2c-32.6-5.5-68.1-32-82.5-61.6l-73.1-147.4s0,0,0,0c-13-26.5-31.9-41.6-43.3-42.2-13.9,0-30.7,16.2-43.7,42.3l-73.2,147.6c-14.2,29.3-49.5,55.8-81.9,61.3l-132.8,22.2c-27.7,4.7-46.8,15.5-51.2,29.2-4.4,13.8,4.9,34.1,24.9,54.3l103.2,104c24.9,25.1,37.9,70.4,30.2,105.4l-29.6,128.9c-9.4,41.2-2.9,63.1,5.6,69.2,8.4,6.1,30.8,5.6,66.6-15.8l124.4-74.2c16.6-9.8,37.2-14.6,57.8-14.6Z"/>
</svg>