<?xml version="1.0" encoding="UTF-8"?>
<svg id="Capa_1" xmlns="http://www.w3.org/2000/svg" version="1.1" viewBox="0 0 1024 1024">
  <!-- Generator: Adobe Illustrator 29.0.0, SVG Export Plug-In . SVG Version: 2.1.0 Build 186)  -->
  <defs>
    <style>
      .st0 {
        fill: #17375e;
      }
    </style>
  </defs>
  <path class="st0" d="M896,864H256c-3.6,0-7-.7-10.5-1.1l102.2-150.9c9.9-14.6,6.1-34.6-8.6-44.4-14.7-10-34.5-6.1-44.4,8.6l-107.4,158.6c-16.8-17.3-27.3-40.8-27.3-66.8V128c0-17.7-14.3-32-32-32s-32,14.3-32,32v640c0,88.2,71.8,160,160,160h640c17.7,0,32-14.3,32-32s-14.3-32-32-32Z"/>
  <path class="st0" d="M800.1,325.9c5.2,3.2,11.1,4.8,16.8,4.8,10.7,0,21.2-5.4,27.2-15.2l79.1-128c9.2-15,4.6-34.8-10.4-44-15-9.3-34.8-4.7-44.1,10.4l-79.1,128c-9.2,15-4.6,34.8,10.4,44Z"/>
  <path class="st0" d="M412.6,616.1c18-24.7,23.1-21.9,28.1-19,10.3,5.9,21.4,20.6,32.2,34.9,19.8,26.1,42.2,55.8,79.4,62.3,4.6.8,9,1.2,13.2,1.2,45.8,0,72-44.2,88.2-71.5l128.9-209c9.2-15,4.6-34.8-10.4-44-15-9.3-34.8-4.7-44.1,10.4l-129.4,210c-9.8,16.6-24.2,41.6-35.2,39.9-12.4-2.2-26.1-20.4-39.5-37.9-14.7-19.4-29.8-39.4-51.4-51.8-27.2-15.6-68.9-22-111.7,36.9-10.4,14.3-7.2,34.3,7.1,44.7,14.3,10.3,34.3,7.2,44.7-7.1Z"/>
</svg>