<?xml version="1.0" encoding="UTF-8"?>
<svg id="Capa_1" xmlns="http://www.w3.org/2000/svg" version="1.1" viewBox="0 0 1024 1024">
  <!-- Generator: Adobe Illustrator 29.0.0, SVG Export Plug-In . SVG Version: 2.1.0 Build 186)  -->
  <defs>
    <style>
      .st0 {
        fill: #17375e;
      }
    </style>
  </defs>
  <path class="st0" d="M646.4,364.8c-104.6,0-281.6,22.9-281.6,108.8v337.9c0,80.1,146,116.5,281.6,116.5s281.6-36.4,281.6-116.5v-337.9c0-85.9-177-108.8-281.6-108.8ZM646.4,428.8c138.3,0,211.1,33.4,218.1,42.2-7,13.9-79.8,47.3-218.1,47.3s-209.3-32.6-217.6-41.9v-.9c8.3-14.2,80.7-46.8,217.6-46.8ZM428.8,546.8c61.1,26.9,153.1,35.7,217.6,35.7s156.6-8.8,217.6-35.7v97.5c-8.1,14.1-80.6,46.9-217.6,46.9s-211-33.4-217.6-44.8v-99.6ZM646.4,864c-140,0-213.4-38.4-217.6-52.5v-92c61.1,26.9,153.1,35.6,217.6,35.6s156.6-8.8,217.7-35.7v91.4c-4.2,14.6-77.6,53.1-217.7,53.1Z"/>
  <path class="st0" d="M277.7,505.3c1.3.2,2.6.2,3.9.2,16,0,29.8-11.9,31.7-28.1,2.2-17.6-10.3-33.5-27.9-35.6-67.7-8.3-114.9-28-125.5-51.9v-112c61.1,26.8,153.1,35.6,217.6,35.6s156.5-8.8,217.6-35.6v3.6c0,17.7,14.3,32,32,32s32-14.3,32-32v-76.8c0-85.9-177-108.8-281.6-108.8S96,118.9,96,204.8v576l1.5,9.6c16.5,52.4,78.8,86.6,180.2,98.9,1.3.2,2.6.2,3.9.2,15.9,0,29.8-11.9,31.7-28.1,2.2-17.6-10.3-33.5-27.9-35.6-66.9-8.2-114.1-27.5-125.5-51v-110c29.9,15.5,69.2,26.6,117.7,32.5,1.3.2,2.6.2,3.9.2,15.9,0,29.8-11.9,31.7-28.1,2.2-17.6-10.3-33.5-27.9-35.6-67.7-8.3-114.9-28-125.5-51.9v-109.1c29.9,15.5,69.2,26.6,117.7,32.5ZM377.6,160c138.3,0,211,33.4,218,42.3-7,13.9-79.8,47.3-218,47.3s-209.3-32.6-217.6-41.9v-.9c8.3-14.2,80.7-46.8,217.6-46.8Z"/>
</svg>