<?xml version="1.0" encoding="UTF-8"?>
<svg id="Capa_1" xmlns="http://www.w3.org/2000/svg" version="1.1" viewBox="0 0 1024 1024">
  <!-- Generator: Adobe Illustrator 29.5.0, SVG Export Plug-In . SVG Version: 2.1.0 Build 137)  -->
  <defs>
    <style>
      .st0 {
        fill: #17375e;
      }
    </style>
  </defs>
  <path class="st0" d="M896,928c-8.19,0-16.38-3.12-22.62-9.38l-361.38-361.38-361.38,361.38c-12.5,12.5-32.75,12.5-45.25,0s-12.5-32.75,0-45.25l361.38-361.38L105.38,150.62c-12.5-12.5-12.5-32.75,0-45.25s32.75-12.5,45.25,0l361.38,361.38L873.38,105.38c12.5-12.5,32.75-12.5,45.25,0s12.5,32.75,0,45.25l-361.38,361.38,361.38,361.38c12.5,12.5,12.5,32.75,0,45.25-6.25,6.25-14.44,9.38-22.62,9.38Z"/>
</svg>