<?xml version="1.0" encoding="UTF-8"?>
<svg id="Capa_1" xmlns="http://www.w3.org/2000/svg" version="1.1" viewBox="0 0 1024 1024">
  <!-- Generator: Adobe Illustrator 29.4.0, SVG Export Plug-In . SVG Version: 2.1.0 Build 152)  -->
  <defs>
    <style>
      .st0 {
        fill: #17375e;
      }
    </style>
  </defs>
  <path class="st0" d="M838.38,582.38c-17.69,0-32-14.28-32-31.97v-294.41c0-46.5,0-77.25-9.38-86.62s-40.06-9.38-86.62-9.38h-223.97v108.81c0,66.91,0,103.75-28.12,131.88s-64.97,28.12-131.88,28.12h-108.81v121.59c0,17.69-14.31,31.97-32,31.97s-32-14.28-32-31.97v-153.59c0-4.47.91-8.72,2.56-12.56,1.44-3.34,3.44-6.5,6.06-9.28,0,0,0-.03.03-.03v-.03l.81-.81L431.78,105.38c3.19-3.19,6.84-5.56,10.78-7.12,3.28-1.28,6.84-2.06,10.56-2.22.44-.03.88-.16,1.41-.03h255.84c66.94,0,103.88,0,131.94,28.16,28.06,28.09,28.06,64.94,28.06,131.84v294.41c0,17.69-14.31,31.97-32,31.97ZM262.84,364.81h63.56c46.5,0,77.25,0,86.62-9.38s9.38-40.12,9.38-86.62v-63.56l-159.56,159.56Z"/>
  <path class="st0" d="M752,928c-13.62,0-25.75-8.62-30.25-21.56l-86.38-249.62c-5.75-16.69,3.06-34.88,19.81-40.69,16.69-5.81,34.94,3.12,40.69,19.81l56.12,162.19,56.12-162.19c5.75-16.75,24.25-25.5,40.69-19.81,16.75,5.81,25.56,24,19.81,40.69l-86.38,249.62c-4.5,12.94-16.62,21.56-30.25,21.56ZM558.62,928h-123.44c-17.69,0-32-14.31-32-32s14.31-32,32-32h91.44v-51.19h-84.66c-17.69,0-32-14.31-32-32v-115.19c0-17.69,14.31-32,32-32h127.62c17.66,0,31.97,14.31,31.97,32s-14.31,32-31.97,32h-95.62v51.19h84.66c17.69,0,32,14.31,32,32v115.19c0,17.69-14.31,32-32,32ZM339.19,928h-153.59c-17.69,0-32-14.31-32-32v-230.38c0-17.69,14.31-32,32-32h153.59c17.69,0,32,14.31,32,32v57.56c0,17.69-14.31,32-32,32s-32-14.31-32-32v-25.56h-89.59v166.38h89.59v-25.62c0-17.69,14.31-32,32-32s32,14.31,32,32v57.62c0,17.69-14.31,32-32,32Z"/>
</svg>