<?xml version="1.0" encoding="UTF-8"?>
<svg id="Capa_1" xmlns="http://www.w3.org/2000/svg" version="1.1" viewBox="0 0 1024 1024">
  <!-- Generator: Adobe Illustrator 29.0.0, SVG Export Plug-In . SVG Version: 2.1.0 Build 186)  -->
  <defs>
    <style>
      .st0 {
        fill: #17375e;
      }
    </style>
  </defs>
  <rect class="st0" x="479.8" y="726.4" width="64.4" height="64"/>
  <rect class="st0" x="300.8" y="726.4" width="64.4" height="64"/>
  <rect class="st0" x="300.8" y="547.2" width="64.4" height="64"/>
  <rect class="st0" x="658.8" y="547.2" width="64.4" height="64"/>
  <rect class="st0" x="479.8" y="547.2" width="64.4" height="64"/>
  <path class="st0" d="M790.4,121.6v-57.6c0-17.7-14.3-32-32-32s-32,14.3-32,32v57.6h-428.8v-57.6c0-17.7-14.3-32-32-32s-32,14.3-32,32v57.6c-86.8,1.7-156.8,72.8-156.8,160v550.4c0,88.2,71.8,160,160,160h550.4c88.2,0,160-71.8,160-160V281.6c0-87.2-70-158.2-156.8-160ZM233.6,185.7v57.5c0,17.7,14.3,32,32,32s32-14.3,32-32v-57.6h428.8v57.6c0,17.7,14.3,32,32,32s32-14.3,32-32v-57.5c51.5,1.7,92.8,44.1,92.8,95.9v64H140.8v-64c0-51.9,41.3-94.2,92.8-95.9ZM787.2,928H236.8c-52.9,0-96-43.1-96-96v-422.4h742.4v422.4c0,52.9-43.1,96-96,96Z"/>
</svg>