<svg width="1024" height="1024" viewBox="0 0 1024 1024" fill="none" xmlns="http://www.w3.org/2000/svg">
<path d="M204.8 0.5H819.2C932.032 0.500099 1023.5 91.9682 1023.5 204.8V819.2C1023.5 932.032 932.032 1023.5 819.2 1023.5H204.8C91.9682 1023.5 0.500099 932.032 0.5 819.2V204.8C0.500107 91.9682 91.9682 0.500107 204.8 0.5Z" fill="#FF7F00" stroke="#FF7F00"/>
<path d="M819.2 51.2H204.8C119.969 51.2 51.2 119.969 51.2 204.8V819.2C51.2 904.031 119.969 972.8 204.8 972.8H819.2C904.031 972.8 972.8 904.031 972.8 819.2V204.8C972.8 119.969 904.031 51.2 819.2 51.2Z" fill="#FF7F00" stroke="#FF7F00"/>
<path d="M399.979 746.919C392.957 746.921 386.005 745.517 379.533 742.792C373.062 740.066 367.201 736.072 362.296 731.047L220.37 586.458C210.356 576.204 204.75 562.441 204.75 548.109C204.75 533.777 210.356 520.014 220.37 509.76C225.264 504.735 231.116 500.741 237.579 498.013C244.042 495.286 250.986 493.881 258.002 493.881C265.017 493.881 271.961 495.286 278.424 498.013C284.887 500.741 290.739 504.735 295.634 509.76L399.979 616.051L717.214 292.979C722.109 287.954 727.961 283.96 734.424 281.232C740.887 278.505 747.831 277.1 754.846 277.1C761.861 277.1 768.806 278.505 775.269 281.232C781.732 283.96 787.584 287.954 792.478 292.979C802.37 303.214 807.899 316.89 807.899 331.123C807.899 345.357 802.37 359.033 792.478 369.267L437.56 731.047C432.655 736.072 426.794 740.066 420.323 742.792C413.851 745.517 407.002 746.921 399.979 746.919Z" fill="white"/>
</svg>
