<!-- Generated by IcoMoon.io -->
<svg version="1.1" xmlns="http://www.w3.org/2000/svg" width="1024" height="1024" viewBox="0 0 1024 1024">
<g id="icomoon-ignore">
</g>
<path d="M146 203l126 126c-94 40-182 94-256 162-10 8-14 20-14 32 0 10 4 22 14 30 88 78 348 278 668 190l124 124 46-48-662-662c0 0-46 46-46 46zM368 425l58 60c-20 46 0 102 48 122 22 10 50 10 74 0l58 58c-78 54-186 32-240-46-38-60-38-136 0-194M316 661c-86-32-166-78-236-138 70-60 150-106 236-138-58 82-58 194 0 276M1008 491c-216-196-420-232-592-202l60 58 4 6c10-2 22-4 32-4 94 0 172 78 172 174 0 10 0 20-2 32l54 54c10-28 16-56 16-86 0-52-18-104-48-146 88 34 170 82 240 146-54 46-112 86-174 118l48 48c70-38 134-82 190-136 10-8 14-18 14-30s-4-22-14-32"></path>
</svg>
