<svg width="1024" height="1024" viewBox="0 0 1024 1024" fill="none" xmlns="http://www.w3.org/2000/svg">
<g clip-path="url(#clip0_487_8)">
<path d="M820.602 462L843.202 439.4L775.402 371.6L651.202 247.4L583.402 179.6L560.802 202.2L515.602 247.4L117.202 645.8C96.4019 666.6 81.2019 692.4 72.8019 720.6L2.00188 961.4C-2.99812 978.2 1.60187 996.4 14.2019 1008.8C26.8019 1021.2 44.8019 1025.8 61.6019 1021L302.202 950.2C330.402 941.8 356.202 926.6 377.002 905.8L775.402 507.4L820.602 462ZM320.002 798.8L301.802 844.2C293.802 850.4 284.802 855 275.202 858L118.802 904L164.802 747.8C167.602 738 172.402 729 178.602 721.2L224.002 703V767C224.002 784.6 238.402 799 256.002 799H320.002V798.8ZM725.402 37.3999L696.602 66.3999L651.402 111.6L628.602 134.2L696.402 202L820.602 326.2L888.402 394L911.002 371.4L956.202 326.2L985.202 297.2C1035.2 247.2 1035.2 166.2 985.202 116.2L906.602 37.3999C856.602 -12.6001 775.602 -12.6001 725.602 37.3999H725.402ZM630.602 373.4L342.602 661.4C330.202 673.8 309.802 673.8 297.402 661.4C285.002 649 285.002 628.6 297.402 616.2L585.402 328.2C597.802 315.8 618.202 315.8 630.602 328.2C643.002 340.6 643.002 361 630.602 373.4Z" fill="black"/>
</g>
</svg>
