<!-- Generated by IcoMoon.io -->
<svg version="1.1" xmlns="http://www.w3.org/2000/svg" width="1024" height="1024" viewBox="0 0 1024 1024">
<g id="icomoon-ignore">
</g>
<path d="M511 657c18 0 32 14 32 32h60c0-40-24-74-62-86v-36h-60v36c-42 14-68 56-60 102 8 44 46 76 90 76 18 0 32 14 32 32s-14 32-32 32c-18 0-32-14-32-32h-60c0 40 26 74 62 86v36h60v-36c42-14 68-56 62-102-8-44-46-76-92-76-12 0-22-6-28-16s-6-22 0-32c6-10 16-16 28-16zM1021 601h-120v-598h-240v120h-180v120h-178v120h-180v238h-120v60h254c-40 112-2 236 94 306 96 72 226 72 320 0 96-70 134-194 94-306h256zM541 183h120v344c-36-24-76-40-120-44zM361 303h120v180c-42 4-84 20-120 44zM183 601v-180h120v160c-6 6-12 14-16 20zM511 961c-116 0-210-94-210-210s94-210 210-210c116 0 210 94 210 210s-94 210-210 210zM841 601h-106c-4-6-8-14-14-20v-518h120z"></path>
</svg>
