<!-- Generated by IcoMoon.io -->
<svg version="1.1" xmlns="http://www.w3.org/2000/svg" width="1024" height="1024" viewBox="0 0 1024 1024">
<g id="icomoon-ignore">
</g>
<path d="M570.89 934c-8-2-16-2-24-2h-398c-16 0-32 0-46 0-10 0-22-6-22-18 0-6-4-12-4-16 0 0 0-2 0-2 0-108 0-212 0-320v-168c0-96 0-188 0-282 0-30 6-36 38-36h630c32 0 38 6 38 36 0 22 0 42 0 68 0 40 0 78 0 116 0 0 0 2 0 2 0 20 16 38 36 38 4 0 6 0 10 0 18-6 30-22 28-44 0-8 0-18 0-30 0-52 0-108 0-160 0 0 0-2 0-2 0-56-44-98-98-98-90 0-188 0-308 0h-346c-24 0-48 8-68 28s-32 54-30 88c0 186 0 374 0 564v200c0 2 0 6 0 8 0 28 10 58 30 76 22 20 50 28 80 28h442c4 0 6 0 10 0 14 0 26-12 32-28 4-20-8-38-30-46zM1014.89 942c-2-8-8-16-14-20l-32-30c-26-28-58-58-86-88-6-6-6-10 0-20 34-46 50-100 50-156 0-14 0-28-6-42-12-62-44-114-92-154-46-36-104-58-166-58-16 0-30 0-46 4-122 20-212 128-212 254 0 144 118 260 258 264 52 0 102-16 144-44 4-2 6-2 10-2 2 0 2 0 8 6 22 20 40 42 62 64l30 30c12 12 26 24 38 38 6 6 14 8 24 8 6 0 16-2 22-6 8-16 14-34 8-48zM858.89 634c0 104-82 188-186 188h-4c-48 0-98-22-132-56-34-36-54-86-52-138 4-100 86-180 188-180h2c50 0 98 18 132 54 30 38 52 84 52 132zM562.89 350c20 0 36-18 36-40 0 0 0 0 0-4-4-20-22-36-44-34h-272c-30 0-56 0-76 0-18 0-34 14-38 32-2 18 14 36 32 40 8 0 14 2 24 2 56 0 114 0 168 0h150c6 6 12 6 20 4zM374.89 522c10 0 22-4 28-10 14-16 14-36 2-52-6-6-14-12-26-12-32 0-60 0-90 0-28 0-54 0-82 0-12 0-22 2-32 12-6 6-8 16-8 24 0 0 0 0 0 4 2 20 22 36 42 34 10 0 18 0 32 0h98c14 0 26 0 36 0zM294.89 616c-6 0-12 0-18 0s-10 0-16 0h-36c-6 0-12 0-18 0-22 0-38 16-40 36 0 10 2 20 8 28 10 4 20 10 28 10 16 0 32 0 46 0 16 0 32 0 46 0 22 0 38-18 38-38 2-20-16-36-38-36z"></path>
</svg>
