<!-- Generated by IcoMoon.io -->
<svg version="1.1" xmlns="http://www.w3.org/2000/svg" width="1024" height="1024" viewBox="0 0 1024 1024">
<g id="icomoon-ignore">
</g>
<path d="M1024 132c0-58-48-110-110-110-44 0-84 28-100 68h-584c-8 0-14 6-14 14v448c0 8 6 14 14 14h24c8 0 14-6 14-14v-310h606c4 2 10 2 12 2v494h-442c-8 0-14 4-14 14v24c0 8 6 14 14 14h482c8 0 14-6 14-14v-536c48-12 84-58 84-108zM934 200c-2-4-6-4-8-4h-12c-10 0-20-2-28-8l28-30 36 36c-4 2-10 2-16 6zM268 140h530c4 24 12 42 24 60h-554zM856 104l32 32-28 30c-4-8-8-20-8-30 0-6 0-10 0-16l4-14c0 0 0-2 0-2zM912 110l-38-36c12-10 26-14 44-14 10 0 24 2 32 8zM936 132l40-40c8 12 12 26 12 40s-6 28-12 40zM708 818h-24c-8 0-14 6-14 14v118h-620v-492h142c8 0 14-6 14-14v-22c0-8-6-14-14-14h-142v-54h146c10 0 14-6 14-14v-24c0-10-4-14-14-14h-182c-8 0-14 4-14 14v672c0 8 6 14 14 14h694c10 0 14-6 14-14v-156c0-8-4-14-14-14zM338 822h24c10 0 14-6 14-14v-164c0-8-4-14-14-14h-166c-8 0-14 6-14 14v26c0 8 6 14 14 14h90l-196 196c-6 6-6 14 0 20l16 18c6 4 18 4 20 0l194-196v88c4 6 10 12 18 12z"></path>
</svg>
