<!-- Generated by IcoMoon.io -->
<svg version="1.1" xmlns="http://www.w3.org/2000/svg" width="1024" height="1024" viewBox="0 0 1024 1024">
<g id="icomoon-ignore">
</g>
<path d="M849 689.365c-12 0-24 8-32 20-68 120-200 186-336 176-194-16-340-188-324-382v-6l24 36c8 8 16 10 26 10 16 0 32-14 34-30 0-4 0-10 0-16 0-8-2-12-4-18v-2l-72-112h-6l-6-4c-4-2-10-4-18-4s-14 2-18 4l-104 100-4 4-2 6c-8 10-8 26 0 40 6 10 16 18 30 18 8 0 16-2 20-8l20-16 10-10v2c-14 166 70 324 214 406 204 118 466 48 584-158 2-2 2-4 4-10 4-10 0-22-4-32-14-10-24-14-36-14zM1017 513.365c-4-10-16-18-28-18-8 0-16 2-22 8l-8 8-22 18v-2c0-10 4-22 4-34 0-238-192-430-428-430-154 0-292 80-370 210l-2 4c-4 4-4 8-4 10-4 10-2 22 6 32 8 8 18 14 30 14s24-8 32-20c68-120 200-186 336-176 194 16 340 188 324 382v6l-24-36c-8-8-16-10-26-10-16 0-32 14-34 30 0 4 0 10 0 16 0 2 2 4 2 8l6 8 74 114c8 8 16 10 26 10 8 0 14-2 20-4l104-100 2-4 2-6c8-10 8-26 0-38z"></path>
</svg>
