<!-- Generated by IcoMoon.io -->
<svg version="1.1" xmlns="http://www.w3.org/2000/svg" width="1024" height="1024" viewBox="0 0 1024 1024">
<g id="icomoon-ignore">
</g>
<path d="M570.686 857c0 0-4 0-4 0-2 2-6 2-8 2l6-8c2-2 6-8 8-12 2-6 6-8 8-14 6-8 14-20 20-32-8-4-16-10-26-16-4-6-10-12-16-14-18 30-40 62-66 88-8 8-20 18-32 26v-146c0-6 0-6 6-6h60c-12-16-20-36-26-54-14 0-26 0-34 0-2 0-2 0-2 0s0-2 0-6c0-30 0-64 0-96v-24c0-4 0-4 6-4h28c6-20 12-38 22-58h-50c-6 0-6 0-6-6v-120c0-6 0-6 6-6h76c18 0 32 0 48 0 4 0 6 0 6 6 4 10 6 24 8 38 18-8 36-18 52-24 0-4-2-10-2-14 0 0 0-2 0-2s2 0 2 0c24 0 46 0 66 0h26c0 0 2 0 2 0s4 0 4 0c0 0 2 0 2 0 6 0 8 2 12 8 0 4 2 6 2 8 26 6 48 18 68 30-2-6-2-12-4-18-12-40-32-74-56-108-14-20-28-38-44-54-26-28-54-52-90-72-24-14-50-28-78-36-30-12-64-20-96-26-4 0-10 0-16 0h-12c-2 0-8 0-12 0h-4c-6 0-12 0-18 0-20 0-40 2-60 6-32 4-62 16-94 28-34 16-68 36-96 62-20 18-40 38-58 58-28 36-54 76-72 120-14 36-24 80-24 120 0 14 0 24 0 36v6c0 20 2 38 4 58 10 42 20 84 40 124 16 26 30 52 50 74 16 24 36 44 60 60 14 14 34 32 56 44 20 10 42 22 66 30 36 16 74 24 114 24 12 0 20 0 28 0h6c26 0 52-4 74-8 64-12 122-40 178-78 8-8 20-14 28-22-26 0-48-6-72-16-20 20-46 36-70 44zM306.686 163c-6 12-14 20-20 30-16 24-34 50-44 78-4 4-6 10-6 12-4 4-4 6-6 12 0 2-6 6-8 6h-92c40-64 102-112 176-138zM62.686 481c2-20 6-40 10-64 6-20 12-40 20-56 0-4 6-6 12-6 12 0 26 0 40 0h40c6 0 12 0 20 0 2 0 2 0 2 0s0 2 0 2c-2 24-4 46-8 66-2 12-2 22-6 34 0 4 0 6 0 8-2 6-2 12-2 16 0 2-4 2-6 2h-120c-2 0-2 0-6 0-2 0 4 0 4-2zM104.686 671c-6 0-12-2-14-8-14-32-26-66-28-102 0-4 0-6 0-10 0-2 0-6 0-8 0 0 0-2 0-2s2-4 2 0c8 0 14 0 22 0h76c8 0 14 0 22 0 2 0 6 0 6 4 2 26 8 52 12 78v2c2 10 2 20 4 30 0 2 0 2 0 4 0 4 0 6 0 6s0 4 0 4c0 0-2 0-2 0h-72c-8 2-20 2-28 2zM278.686 851c-28-14-56-28-80-48-16-14-32-30-46-44-6-4-10-14-16-22l-4-2c0 0-2-4-2-4s0 0 2 0c0 0 0 0 4 0 0 0 0 0 2 0h28c20 0 40 0 58 0 6 0 12 4 12 8 6 18 14 32 22 50 14 24 28 48 46 68l8 8c0 0 0 0 0 4-14-10-26-12-34-18zM404.686 825c0 14 0 32 0 46 0 0 0 2 0 2s0 0 0 4c-6-4-8-6-14-12-32-28-58-60-80-96-10-12-14-26-20-38 0-2 0-2 0-6 0-2 2 0 6 0 34 0 68 0 104 0 4 0 6 0 6 6-2 32-2 62-2 94zM404.686 665c0 0 0 4 0 4s-4 0-4 0c-10 0-20 0-30 0h-66c-8 0-20 0-32 0-6 0-6-4-8-6-8-28-14-54-18-82 0-6 0-16 0-24 0-6 0-8 0-14 0 0 0-2 0-2s4 0 4 0h90c16 0 36 0 56 0 2 0 4 0 4 4 4 38 4 78 4 120zM404.686 481c0 2 0 4-6 4-12 0-26 0-38 0h-108c-2 0-2 0-6 0-2 0 0-2 0-4 0-4 0-6 0-10 0-8 0-20 4-28 2-28 8-54 16-82 0-4 4-6 6-6 24 0 48 0 74 0 18 0 34 0 52 0 2 0 6 0 6 6 0 40 0 80 0 120zM404.686 187c0 34 0 70 0 104 0 4 0 4 0 6 0 0-4 0-6 0-18 0-34 0-52 0h-50c-4 0-4 0-6 0-4 0 0-2 0-2 10-26 26-48 40-68 16-24 36-46 60-66 2-4 6-6 8-8l2-4v38zM558.686 163c0 0 2 0 2 0 12 4 24 10 34 14 30 18 58 36 84 58 14 12 28 26 42 42 4 4 6 10 8 12v2l4 4c0 0 2 2 0 2 0 0 0 0-4 0h-88c-6 0-8-2-12-6-8-22-20-44-34-68-8-16-22-36-34-54-2-2-6-2-2-6zM460.686 149l4 4c14 8 26 20 36 34 24 26 44 54 60 82 6 8 10 18 12 26 0 2 0 2 0 2s-2 0-2 0c-20 0-40 0-58 0h-48c-4 0-6-2-6-6 0-20 0-36 0-56v-12c0-22 0-46 0-68 0-2 0-2 2-6-2 4-2 0 0 0zM1008.686 849l-128-130c62-82 48-198-32-264-68-54-164-58-236-4-86 64-102 186-38 268 64 86 186 104 268 38l130 128c4 6 10 8 20 8 4 0 14-2 20-8 4-8 4-26-4-36zM726.686 743c-78 0-140-64-140-140 0-78 62-140 140-140 76 0 140 62 140 140 0 80-64 140-140 140z"></path>
</svg>
