<!-- Generated by IcoMoon.io -->
<svg version="1.1" xmlns="http://www.w3.org/2000/svg" width="1024" height="1024" viewBox="0 0 1024 1024">
<g id="icomoon-ignore">
</g>
<path d="M771 448.052v-186c0-4 0-10 0-14-6-144-126-256-268-252-140 6-254 124-250 266v186c-54 2-96 46-96 100v380c0 54 46 100 102 100h506c54 0 102-44 102-100v-380c-2-54-44-98-96-100zM325 262.052c0-102 84-184 184-184 102 0 186 84 186 184v186h-370zM231 548.052c0-14 12-28 28-28h506c16 0 28 14 28 28v380c0 14-12 26-28 26h-506c-16 0-28-12-28-26zM475 732.052v70c0 20 18 36 38 36 18 0 36-16 36-36v-70c20-12 32-34 32-56 0-36-30-68-68-68s-70 28-70 68c0 22 12 44 32 56z"></path>
</svg>
