<!-- Generated by IcoMoon.io -->
<svg version="1.1" xmlns="http://www.w3.org/2000/svg" width="1024" height="1024" viewBox="0 0 1024 1024">
<g id="icomoon-ignore">
</g>
<path d="M892.812 1.151h-756c-44 0-80 34-80 76v244c0 20 8 40 22 56 16 16 36 24 58 24h112c20-2 42-10 58-24 14-14 22-36 22-56v-48h48v478h-74c-42 0-76 36-76 78v118c0 42 34 76 76 76h416c42 0 76-34 76-76v-118c0-44-34-78-76-78h-72v-478h52v50c0 22 8 42 24 58 14 14 34 22 56 22h112c20 0 40-8 54-22 16-16 24-36 22-58v-246c2-20-4-40-18-54-14-16-34-24-56-22zM772.812 203.151c-8-10-18-14-30-14h-134c-10 0-22 4-28 14-8 8-12 18-14 28v562c0 12 6 22 14 28 8 8 18 12 28 14h106v104h-406v-108h108c12 0 22-4 30-12s12-18 12-30v-562c2-10-4-22-12-28s-18-10-30-10h-130c-10 0-22 4-30 10-8 8-12 18-12 28v94h-104v-240h750v240h-106v-90c2-12-4-22-12-28z"></path>
</svg>
