<!-- Generated by IcoMoon.io -->
<svg version="1.1" xmlns="http://www.w3.org/2000/svg" width="1024" height="1024" viewBox="0 0 1024 1024">
<g id="icomoon-ignore">
</g>
<path d="M56 666c18 22 42 42 68 54s54 20 84 20h258v-118h-260c-16 0-30-2-44-10-14-6-28-16-38-28-16-20-24-46-24-72-2-26 6-52 24-74 16-20 42-34 68-36h272l2-4v-114h-274c-26 2-52 8-76 18-22 12-44 28-60 48-38 46-56 102-56 162 0 56 20 110 56 154zM968 358c-18-22-42-42-68-54s-54-20-84-20h-258v118h260c16 0 30 2 46 10 14 6 26 16 36 28 16 20 26 46 26 72 2 26-8 52-24 74-18 20-44 34-70 36h-272l-2 4v114h274c26 0 52-8 76-18 22-12 44-28 60-48 38-46 56-102 56-162 0-56-20-110-56-154z"></path>
</svg>
