<!-- Generated by IcoMoon.io -->
<svg version="1.1" xmlns="http://www.w3.org/2000/svg" width="1024" height="1024" viewBox="0 0 1024 1024">
<g id="icomoon-ignore">
</g>
<path d="M629.917 74c-96 0-188 36-260 102-68 4-132 26-190 62-12 10-14 26-6 38 6 12 24 18 36 8 52-38 114-56 180-56 90 0 180 38 244 106 64 62 96 144 96 230-4 182-152 330-336 330h-2c-138 0-258-82-306-210-52-124-22-268 74-364 10-10 10-26 0-36-10-8-26-8-36 2-114 112-150 280-88 428 20 44 48 84 80 118 74 74 176 118 284 118 46 0 90-8 134-26s84-42 118-74c48-2 94-16 140-36 88-42 158-116 198-208 20-44 30-94 28-144 0-214-174-388-388-388zM739.917 736c38-16 74-40 104-72 10-10 10-28 0-38s-28-10-38 0c-10 12-22 22-36 32 8-34 12-72 12-108-6-98-46-186-110-260-24-26-54-48-84-66 14-2 30-6 46-6 86 0 164 48 208 122 44 72 44 164 2 236-8 12-2 30 10 38s30 2 36-10c52-90 50-202-4-290-74-132-236-184-376-122-20-6-36-10-56-12 52-34 112-52 174-52 92 0 178 36 242 100 62 62 96 144 96 232 0 154-106 288-256 326 12-16 22-34 30-50zM97.917 562c0 162 132 296 296 296s296-132 296-296c0-2 0-2 0-6-2-164-134-292-298-292-164 2-294 136-294 298zM153.917 562c0-134 106-242 240-242s240 108 240 242c-6 164-128 238-240 238s-236-74-240-238zM323.917 666c12 10 30 14 46 18v10c0 12 10 20 20 20 12 0 18-10 18-20v-14c30-6 50-32 56-62 4-20 0-36-12-54-10-12-26-22-44-28v-54c4 0 6 2 8 6 2 2 6 2 8 4 10 6 22-2 28-12 2-8 2-18-6-22-10-8-22-16-34-18v-10c0-12-10-20-20-20-12 0-20 10-20 20v10c-22 8-40 24-46 48-6 22 0 46 18 62 8 6 18 12 28 16v76c-8-4-16-6-22-10-4-4-8-4-14-4-10 0-16 8-18 16-6 10 0 18 6 22zM361.917 502c0-4 2-10 8-12v32l-4-2c-4-6-6-12-4-18zM423.917 608c0 14-6 24-16 30v-54c10 4 18 14 16 24z"></path>
</svg>
