<!-- Generated by IcoMoon.io -->
<svg version="1.1" xmlns="http://www.w3.org/2000/svg" width="1024" height="1024" viewBox="0 0 1024 1024">
<g id="icomoon-ignore">
</g>
<path d="M511 693.14c-22 0-44 0-66 0-20 2-40-6-56-20-14-14-20-34-20-56 0-24 0-50 0-76 0-12 0-24 0-36 0-2 0-2 0-4 0-10 0-20 0-30 0-26 0-54 2-82-24 0-48 0-70 0-18 0-36 0-52 0-28 4-54-12-64-38-10-24-4-52 16-72 84-84 170-170 260-258 2-4 4-8 8-10 28-22 66-18 90 8 94 94 178 178 258 258 22 16 30 46 18 72s-38 42-66 40c-26 0-50 0-74 0-14 0-26 0-38 0h-6c0 2 0 2 0 4 0 24 0 50 0 74 0 48 0 100 0 148 4 22-4 42-18 58s-36 22-56 20c-22 0-44 0-66 0zM419 507.14c0 12 0 24 0 34 0 26 0 52 0 76 0 8 2 16 6 22 6 4 14 6 20 4 44 2 88 2 130 0 8 2 16 0 22-4 2-2 6-8 6-24 0-48 0-100 0-148 0-24 0-50 0-74-4-16 0-30 10-42 12-10 28-14 44-12 12 0 24 0 38 0 24 0 50 0 76 0 0 0 0 0 2 0 6 2 14-2 16-10 2-4 2-10-4-14 0 0-2-2-2-2-80-80-166-166-260-260-2 0-2 0-2-2-6-6-14-6-20-2-2 2-2 2-2 2-2 2-2 2-2 4-90 88-178 174-262 260v0c-4 4-6 10-4 16 0 0 0 2 0 2 2 4 8 8 12 6 2 0 2 0 4 0 18 0 36 0 54 0 24 0 48 0 72 0 12 0 26 4 34 12 10 10 14 22 12 36 0 28 0 56 0 84 0 12 0 22 0 32 0 2 0 2 0 4zM511 693.14c-22 0-44 0-66 0-20 2-40-6-56-20-14-14-20-34-20-56 0-24 0-50 0-76 0-12 0-24 0-36 0-2 0-2 0-4 0-10 0-20 0-30 0-26 0-54 2-82-24 0-48 0-70 0-18 0-36 0-52 0-28 4-54-12-64-38-10-24-4-52 16-72 84-84 170-170 260-258 2-4 4-8 8-10 28-22 66-18 90 8 94 94 178 178 258 258 22 16 30 46 18 72s-38 42-66 40c-26 0-50 0-74 0-14 0-26 0-38 0h-6c0 2 0 2 0 4 0 24 0 50 0 74 0 48 0 100 0 148 4 22-4 42-18 58s-36 22-56 20c-22 0-44 0-66 0zM375 339.14c12 0 24 4 32 12 10 10 14 22 12 36 0 28 0 56 0 84 0 12 0 22 0 34 0 0 0 0 0 2 0 12 0 24 0 34 0 26 0 52 0 76 0 8 2 16 6 22 6 4 14 6 20 4 44 2 88 2 130 0 8 2 16 0 22-4 2-2 6-8 6-24 0-48 0-100 0-148 0-24 0-50 0-74-4-16 0-30 10-42 12-10 28-14 44-12 12 0 24 0 38 0 24 0 50 0 76 0 0 0 0 0 2 0 6 2 14-2 16-10 2-4 2-10-4-14 0 0-2-2-2-2-80-80-166-166-260-260-2 0-2 0-2-2-6-6-14-6-20-2-2 2-2 2-2 2-2 2-2 2-2 4-90 88-178 174-262 260v0c-4 4-6 10-4 16 0 0 0 2 0 2 2 4 8 8 12 6 2 0 2 0 4 0 18 0 36 0 54 0 24 0 48 0 72 0zM83 1027.14c-36 0-70-22-86-54-2-4-2-8-2-12v-226c0-4 0-6 2-10 0 0 0-2 0-2 2-6 4-10 6-14l110-216c18-34 58-46 92-30 34 18 46 58 30 92l-60 116c52 0 102 0 150-2 22 0 44 8 58 24 22 22 44 44 66 66v0c32 34 86 36 120 4 0-2 2-2 2-4h2c20-20 42-42 66-66 12-16 32-24 52-24 50 2 102 2 152 2l-58-116c-18-34-4-74 30-92 32-16 74-4 90 30l110 216c2 2 4 4 4 8 8 14 12 32 8 48 0 20 0 38 0 56 0 38 0 76 0 114 2 4 2 6 2 10v0c-2 46-38 80-84 80-6 2-12 2-16 2h-4c-276 0-554 0-830 0-4 0-8 0-12 0zM45 955.14c10 16 26 24 46 22 0 0 2 0 2 0 276 0 556 0 832 0h4c4 0 8 0 14 0 0 0 2 0 2 0 18 0 34-14 34-34 0 0 0-2 0-4 0 0 0-2 0-2 0-38 0-78 0-116 0-18 0-38 0-56 0-2 0-4 0-4 2-8 0-16-4-22-2-2-2-4-2-6 0 0 0 0-2-2l-110-216c-4-8-16-12-24-8-10 6-12 16-8 26l78 150c4 8 2 18-2 24-4 8-12 12-20 12-64 0-130 0-194 0h-2c-4 0-10 2-14 8v0c-24 26-46 48-68 66 0 2-2 4-4 4-52 52-138 50-188-2-24-22-46-44-68-68v0c-4-6-12-8-18-8h-2c-62 0-126 0-192 0-8 0-16-4-20-12-6-6-6-16-2-24l78-150c4-10 0-20-8-26-10-4-20 0-26 8l-110 216c0 2 0 4-2 6 0 0 0 2 0 4zM889 945.14h-2c-32 0-60-26-60-58 0 0 0-2 0-2 2-32 28-58 60-60h2c32 0 58 26 60 56 0 2 0 4 0 6v2c0 0 0 0 0 2-2 30-28 54-60 54zM887 897.14h2c6 0 10-4 10-10v0c0-2 0-2 0-4 0 0 0 0 0 0 0-4-4-8-10-8s-12 6-12 12c0 6 4 10 10 10zM737 945.14c-32 0-60-24-60-56 0-2 0-2 0-2v0c0-32 24-60 58-62h2c32 0 60 26 60 58 0 0 0 2 0 2 2 32-26 60-60 60v0zM727 887.14c0 6 4 10 10 8v0c6 0 10-4 12-10-2-6-6-10-12-10s-10 6-10 10c0 2 0 2 0 2zM83 1027.14c-36 0-70-22-86-54-2-4-2-8-2-12v-226c0-4 0-6 2-10 0 0 0-2 0-2 2-6 4-10 6-14l110-216c18-34 58-46 92-30 34 18 46 58 30 92l-60 116c52 0 102 0 150-2 22 0 44 8 58 24 22 22 44 44 66 66v0c32 34 86 36 120 4 0-2 2-2 2-4h2c20-20 42-42 66-66 12-16 32-24 52-24 50 2 102 2 152 2l-58-116c-18-34-4-74 30-92 32-16 74-4 90 30l110 216c2 2 4 4 4 8 8 14 12 32 8 48 0 20 0 38 0 56 0 38 0 76 0 114 2 4 2 6 2 10v0c-2 46-38 80-84 80-6 2-12 2-16 2h-4c-276 0-554 0-830 0-4 0-8 0-12 0zM175 505.14c-2 0-4 2-6 2-6 2-8 4-12 8l-110 216c0 2 0 4-2 6 0 0 0 2 0 4v214c10 16 28 24 46 22 0 0 2 0 2 0 276 0 556 0 832 0h4c4 0 8 0 14 0 0 0 2 0 2 0 18 0 34-14 34-34 0 0 0-2 0-4 0 0 0-2 0-2 0-38 0-78 0-116 0-18 0-38 0-56 0-2 0-4 0-4 2-8 0-16-4-22 0-2-2-4-2-6 0 0 0 0-2-2l-110-216c-4-8-16-12-24-8-10 6-12 16-8 26l78 150c4 8 2 18-2 24-4 8-12 12-20 12-64 0-130 0-194 0h-2c-4 0-10 2-14 8v0c-24 26-46 48-68 66 0 2-2 4-4 4-52 52-138 50-188-2-24-22-46-44-68-68v0c-4-6-12-8-18-8h-2c-62 0-126 0-192 0-8 0-16-4-20-12-6-6-6-16-2-24l78-150c2-6 2-14-2-18-2-6-8-10-14-10zM889 945.14h-2c-32 0-60-26-60-58 0 0 0-2 0-2 2-32 28-58 60-60h2c32 0 58 26 60 56 0 2 0 4 0 6v2c0 0 0 0 0 2-2 30-28 54-60 54zM891 875.14c-8 0-12 6-14 12 0 4 6 8 10 10h2c6 0 10-4 10-10v0c0-2 0-2 0-4 0 0 0 0 0 0 0-4-4-8-8-8zM737 945.14c-32 0-58-24-60-56 0-2 0-2 0-2v0c0-32 26-60 58-62h2c32 0 60 26 62 58 0 0 0 2 0 2 0 32-28 60-62 60v0zM737 875.14c-6 0-10 4-10 10 0 0 0 2 0 2v0c0 6 4 8 10 8v0c6 0 10-4 12-10-2-6-6-10-12-10z"></path>
</svg>
