<!-- Generated by IcoMoon.io -->
<svg version="1.1" xmlns="http://www.w3.org/2000/svg" width="1024" height="1024" viewBox="0 0 1024 1024">
<g id="icomoon-ignore">
</g>
<path d="M506 498.725c68 0 130-26 176-74 48-46 74-108 74-176s-26-130-74-178c-98-96-254-96-354 0-46 48-72 110-72 178s26 130 72 176c48 48 112 74 178 74zM328 248.725c0-48 18-94 52-126 34-34 78-52 126-52 46 0 94 18 124 52 34 34 52 78 52 126 0 46-18 94-52 124-70 70-182 70-252 0-32-30-52-78-50-124zM940 780.725c-4-20-6-44-8-64-2-22-10-44-16-66-8-20-16-42-26-60-10-20-26-36-42-52-18-16-36-28-60-36-22-10-48-12-74-12-16 2-32 8-44 18-14 8-26 14-42 26-16 10-34 18-52 22-42 14-86 14-128 0-18-4-36-12-52-22-16-12-28-18-42-26-12-10-26-16-44-18-26 0-52 4-74 12s-42 20-60 36c-14 16-26 32-40 52-10 18-20 40-26 60-8 22-12 44-16 66-4 20-6 44-6 64-4 22-4 42-4 62-2 50 16 96 52 134 36 34 84 48 132 48h488c48 4 96-14 132-48s54-84 52-134c0-20 0-40 0-62zM308 556.725c2 0 6 4 10 6 14 8 26 18 42 26 20 12 44 24 68 32 54 18 114 18 172 0 22-8 46-20 66-32 16-10 32-18 42-26 6-2 8-6 10-6 16 0 30 4 44 8 14 6 26 14 38 24 10 10 20 24 28 36 8 16 16 32 20 48 6 18 10 36 14 54 2 18 4 36 8 56 0 20 2 38 2 56 2 28-8 60-28 80-24 20-52 32-84 28h-492c-30 4-58-8-82-28-20-20-32-50-28-80 0-18 0-36 2-56 2-18 2-38 8-56 2-18 8-36 12-54 6-16 14-32 22-48 8-12 18-26 28-36s24-18 36-24c10-2 26-4 42-8z"></path>
</svg>
