<svg width="1024" height="1024" viewBox="0 0 1024 1024" fill="none" xmlns="http://www.w3.org/2000/svg">
<g clip-path="url(#clip0_487_4)">
<path d="M512 512C589.595 512 664.011 485.029 718.879 437.019C773.747 389.01 804.571 323.895 804.571 256C804.571 188.105 773.747 122.99 718.879 74.9807C664.011 26.9714 589.595 0 512 0C434.405 0 359.989 26.9714 305.121 74.9807C250.253 122.99 219.429 188.105 219.429 256C219.429 323.895 250.253 389.01 305.121 437.019C359.989 485.029 434.405 512 512 512ZM407.543 608C182.4 608 0 767.6 0 964.6C0 997.4 30.4 1024 67.8857 1024H956.114C993.6 1024 1024 997.4 1024 964.6C1024 767.6 841.6 608 616.457 608H407.543Z" fill="black"/>
</g>
</svg>
