<svg width="1280" height="1024" viewBox="0 0 1280 1024" fill="none" xmlns="http://www.w3.org/2000/svg">
<path d="M248 64C155.25 64 80 139.25 80 232V792C80 884.75 155.25 960 248 960H1032C1124.75 960 1200 884.75 1200 792V232C1200 139.25 1124.75 64 1032 64H248ZM192 232C192 201.025 217.025 176 248 176H1032C1062.98 176 1088 201.025 1088 232V792C1088 822.975 1062.98 848 1032 848H248C217.025 848 192 822.975 192 792V232ZM471.65 372C471.65 360.969 469.477 350.046 465.256 339.855C461.034 329.663 454.847 320.403 447.047 312.603C439.247 304.803 429.987 298.616 419.795 294.394C409.604 290.173 398.681 288 387.65 288C376.619 288 365.696 290.173 355.505 294.394C345.313 298.616 336.053 304.803 328.253 312.603C320.453 320.403 314.266 329.663 310.044 339.855C305.823 350.046 303.65 360.969 303.65 372C303.65 383.031 305.823 393.954 310.044 404.145C314.266 414.337 320.453 423.597 328.253 431.397C336.053 439.197 345.313 445.384 355.505 449.606C365.696 453.827 376.619 456 387.65 456C398.681 456 409.604 453.827 419.795 449.606C429.987 445.384 439.247 439.197 447.047 431.397C454.847 423.597 461.034 414.337 465.256 404.145C469.477 393.954 471.65 383.031 471.65 372ZM248 605.275C248 631 268.825 652 294.725 652H392.9C406.9 592.325 450.3 544.025 507 523.2C493.875 516.025 478.65 512 462.725 512H341.45C289.825 512 248 553.825 248 605.275ZM887.1 652H985.275C1011 652 1032 631.175 1032 605.275C1032 553.65 990.175 512 938.725 512H817.45C801.35 512 786.3 516.025 773.175 523.2C829.875 544.025 873.275 592.325 887.275 652H887.1ZM731 569.75C724.175 568.525 717.175 568 710 568H570C562.825 568 555.825 568.525 549 569.75C503.5 577.45 466.225 609.475 451.175 652C446.45 665.125 444 679.3 444 694C444 717.275 462.725 736 486 736H794C817.275 736 836 717.275 836 694C836 679.3 833.55 665.125 828.825 652C813.775 609.475 776.5 577.45 731 569.75ZM976 372C976 349.722 967.15 328.356 951.397 312.603C935.644 296.85 914.278 288 892 288C869.722 288 848.356 296.85 832.603 312.603C816.85 328.356 808 349.722 808 372C808 394.278 816.85 415.644 832.603 431.397C848.356 447.15 869.722 456 892 456C914.278 456 935.644 447.15 951.397 431.397C967.15 415.644 976 394.278 976 372ZM640 512C669.704 512 698.192 500.2 719.196 479.196C740.2 458.192 752 429.704 752 400C752 370.296 740.2 341.808 719.196 320.804C698.192 299.8 669.704 288 640 288C610.296 288 581.808 299.8 560.804 320.804C539.8 341.808 528 370.296 528 400C528 429.704 539.8 458.192 560.804 479.196C581.808 500.2 610.296 512 640 512Z" fill="black"/>
</svg>
