<!-- Generated by IcoMoon.io -->
<svg version="1.1" xmlns="http://www.w3.org/2000/svg" width="1024" height="1024" viewBox="0 0 1024 1024">
<g id="icomoon-ignore">
</g>
<path d="M1008 497c-42-52-92-100-144-142-48-38-102-70-158-96-60-30-126-46-194-46s-134 16-196 46c-56 26-108 58-158 96-52 42-102 90-144 142l-12 14 12 16c42 52 92 100 144 142 46 38 102 72 158 98 62 28 128 44 196 44s134-16 196-44c56-26 108-60 158-98 52-42 102-90 144-142l12-16zM512 745c-130 0-234-104-234-234s104-234 234-234c130 0 234 104 234 234s-106 234-234 234M66 511c38-42 78-82 122-118 34-26 68-50 106-70-94 108-94 268 0 374-38-20-72-44-106-70-42-34-84-74-122-116M834 629c-34 26-72 52-110 72 96-110 96-270 0-376 38 20 74 44 106 70 46 36 86 76 124 118-36 40-76 80-120 116M512 363c-16 0-30 2-48 6 22 14 26 42 12 64s-42 26-64 12c-6-4-14-12-16-22-40 64-22 148 42 188s148 20 188-44c40-64 20-146-44-186-20-12-44-18-70-18"></path>
</svg>
