<!-- Generated by IcoMoon.io -->
<svg version="1.1" xmlns="http://www.w3.org/2000/svg" width="1024" height="1024" viewBox="0 0 1024 1024">
<g id="icomoon-ignore">
</g>
<path d="M985.59 582l-236-412c-48-86-140-138-238-138s-188 52-238 138l-236 412c-24 42-36 88-36 138 0 152 124 272 272 272h478c46 0 94-12 136-36 128-78 174-244 98-374zM749.59 882h-478c-28 0-56-6-82-20-80-46-108-148-62-228l240-412c14-26 34-48 62-62 80-46 180-18 226 62l240 412c14 26 22 54 22 84 0 92-76 164-168 164zM473.59 392l20 264h60l18-264v-118h-98zM475.59 680h92v92h-92z"></path>
</svg>
