<!-- Generated by IcoMoon.io -->
<svg version="1.1" xmlns="http://www.w3.org/2000/svg" width="1024" height="1024" viewBox="0 0 1024 1024">
<g id="icomoon-ignore">
</g>
<path d="M512.069-0.556c18 0 32 0 50 0 42 6 82 14 120 26 34 12 66 28 96 48 40 24 76 54 106 88 18 20 36 42 54 66 26 38 50 84 66 132 12 36 18 74 20 114 2 38 0 76-6 116-12 92-50 180-114 254-26 30-54 58-86 82-34 24-66 44-106 60-32 14-68 26-108 32-44 8-86 8-130 6-48-2-94-12-138-30-28-8-54-24-82-38-26-16-54-34-78-54-26-22-50-48-72-72-20-28-42-58-56-90-22-48-40-100-48-150 0-40-2-78 0-116 2-52 14-100 32-144 22-54 52-102 88-148 20-24 42-48 68-68 36-30 78-54 120-72 36-16 76-28 114-34 30-8 60-8 90-8M640.069 543.444h-86c-6 0-6 0-6 6 0 48 0 96 0 144 0 6 0 6 6 6 24 0 48 0 68 0 28 0 54 0 82 0 2 0 6-2 6-6 2-14 6-26 8-42 10-32 12-68 12-104 0-6 0-6-6-6-26 2-56 2-84 2M398.069 699.444c24 0 52 0 76 0 6 0 6-2 6-6 0-48 0-96 0-144 0-6 0-6-6-6-34 0-66 0-100 0-26 0-50 0-78 0-2 0-6 0-6 4 0 14 4 30 4 44 2 34 8 70 20 102 0 6 4 6 10 6 24 0 48 0 74 0M638.069 479.444h86c12 0 10 0 10-10 0-2 0-8 0-12 0-24-4-44-10-68-2-22-8-40-14-60 0-6-4-6-10-6-50 0-98 0-150 0-6 0-6 0-6 6 0 48 0 96 0 144 0 6 0 6 10 6h84M384.069 479.444c30 0 60 0 86 0 6 0 6 0 6-6 0-48 0-96 0-144 0-6-2-6-6-6-20 0-42 0-62 0-30 0-60 0-90 0-4 0-6 0-6 6-10 32-16 66-22 98-2 16-2 34-2 48 0 6 0 6 6 6l90-2M144.069 479.444c24 0 48 0 72 0 2 0 6 0 6-6 0-10 2-18 2-28 6-38 12-80 18-120 0-2 0-6-2-6-40 0-82 0-120 0-6 0-12 4-12 10-10 20-18 44-24 68s-10 48-12 76c0 6 0 6 6 6h66M880.069 479.444c24 0 48 0 72 0 6 0 6-4 6-6 0-4 0-10-2-16-6-44-18-86-34-126-2-8-8-12-18-12-2 0-6 0-8 0-36 0-72 0-108 0-6 0-6 4-6 6 0 10 2 18 2 30 6 40 12 78 18 118 0 6 4 6 10 6 20 0 44 0 68 0M144.069 543.444c-24 0-48 0-72 0-6 0-6 4-6 6 0 6 0 12 2 18 6 42 18 84 36 124 4 6 10 12 16 8 32 0 68 0 102 0 6 0 12 0 18 0 2 0 6 0 2-6 0-6 0-8-2-14-6-46-12-88-22-132 0-6-2-6-6-6-20 2-44 2-68 2M848.069 703.444h60c6 0 12-4 14-10 6-14 10-30 16-42 12-32 20-66 24-98 0-4 0-6-4-6-48 0-96 0-144 0-2 0-6 0-6 6-2 12-2 24-6 36-6 36-12 74-14 110 0 6 0 6 6 6l54-2M480.069 71.444c-6 6-12 8-18 14-28 24-52 48-72 78-18 28-36 54-48 84-4 6-4 6 2 6 42 0 84 0 126 0 10 0 10 0 10-6 0-56 0-114 0-168v-8M544.069 163.444c0 28 0 58 0 84 0 4 0 6 6 6 42 0 84 0 126 0 6 0 6-2 4-6-4-12-10-20-16-30-18-36-42-68-68-98-12-16-28-30-46-42 0 0-2-4-2-4s0 4 0 6c-4 28-4 58-4 84M544.069 949.444c12-10 24-22 36-34 42-42 76-90 100-144 2-6 2-6-4-6h-126c-8 0-8 0-8 10 0 54 0 108 0 162zM480.069 949.444c0-4 0-4 0-6 0-58 0-114 0-168 0-6-4-6-6-6-42 0-84 0-126 0-6 0-6 0-4 6 6 14 16 30 24 44 28 46 58 84 96 118 4 2 10 8 16 12M362.069 91.444c-86 30-162 88-216 162 0 0 4 0 4 0h110c6 0 10-2 12-6 4-8 10-18 12-26 16-34 34-66 54-94 10-12 16-24 24-36M818.069 253.444c18 0 36 0 54 0 2 0 2 0 6 0 2 0 0-2-4-6-6-6-8-14-14-20-16-16-34-34-52-48-30-28-62-52-98-70-12-6-28-12-42-18-4 0-6-2-6 0 0 4 2 4 2 6 18 22 34 42 46 66 14 28 30 54 42 82 2 6 6 8 12 8 18 0 36 0 54 0M662.069 931.444c6 0 12-4 14-6 42-18 82-40 118-70 30-24 56-54 78-84 0 0 2-2 2-2 0-4-2 0-6 0-32 0-68 0-102 0-8 0-14 2-18 12-6 14-14 30-20 44-16 28-34 58-52 82-2 8-8 14-14 24M366.069 931.444c0 0 0-4-4-4-2-2-6-6-8-12-22-26-40-54-54-84-10-18-18-38-28-56-2-6-8-12-14-10-34 0-70 0-102 0-4 0-6 0-6 0s2 4 2 6c10 12 16 22 24 30 18 18 36 36 54 52 30 24 64 44 96 60 16 8 28 14 40 18"></path>
</svg>
