<!-- Generated by IcoMoon.io -->
<svg version="1.1" xmlns="http://www.w3.org/2000/svg" width="1024" height="1024" viewBox="0 0 1024 1024">
<g id="icomoon-ignore">
</g>
<path d="M1012.845 951.226l-290-290c140-174 114-428-60-572-174-140-432-114-572 60s-114 428 60 572c150 120 362 120 508 0l292 290c18 18 44 18 60 0s16-44 2-60zM408.845 723.226c-178 0-322-144-322-320s144-320 322-320c176 0 320 144 320 320-4 180-144 320-320 320zM616.845 353.226h-392c-2 0-6 2-6 6v68c0 4 4 6 6 6h392c4 0 6-2 6-6v-68c0 0-2-6-6-6z"></path>
</svg>
